<?xml version="1.0" encoding="UTF-8"?>
<svg xmlns="http://www.w3.org/2000/svg" xmlns:xlink="http://www.w3.org/1999/xlink" width="402.12" height="628.32" viewBox="-28.56 -599.76 402.12 628.32">
<defs>
<style type="text/css">
.l65d44 {stroke: #2B3D26; fill: #2B3D26; fill-opacity: 0.5;}
.l235d4 {stroke: #0067A5; fill: #0067A5; fill-opacity: 0.5;}
.l67d44 {stroke: #875692; fill: #875692; fill-opacity: 0.5;}
.l69d44 {stroke: #A1CAF1; fill: #A1CAF1; fill-opacity: 0.5;}
.l122d16 {stroke: #F6A600; fill: #F6A600; fill-opacity: 0.5;}
.l93d44 {stroke: #008856; fill: #008856; fill-opacity: 0.5;}
.l78d44 {stroke: #F6A600; fill: #F6A600; fill-opacity: 0.5;}
.l236d0 {stroke: #E25822; fill: #E25822; fill-opacity: 0.5;}
.l66d44 {stroke: #F3C300; fill: #F3C300; fill-opacity: 0.5;}
.l68d44 {stroke: #F38400; fill: #F38400; fill-opacity: 0.5;}
.l95d20 {stroke: #654522; fill: #654522; fill-opacity: 0.5;}
.l70d44 {stroke: #BE0032; fill: #BE0032; fill-opacity: 0.5;}
.l94d20 {stroke: #8DB600; fill: #8DB600; fill-opacity: 0.5;}
.l68d16 {stroke: #E25822; fill: #E25822; fill-opacity: 0.5;}
.l67d20 {stroke: #0067A5; fill: #0067A5; fill-opacity: 0.5;}
.l71d16 {stroke: #875692; fill: #875692; fill-opacity: 0.5;}
.l69d20 {stroke: #604E97; fill: #604E97; fill-opacity: 0.5;}
.l68d20 {stroke: #F99379; fill: #F99379; fill-opacity: 0.5;}
.l71d20 {stroke: #B3446C; fill: #B3446C; fill-opacity: 0.5;}
.l70d20 {stroke: #F6A600; fill: #F6A600; fill-opacity: 0.5;}
.l70d16 {stroke: #F3C300; fill: #F3C300; fill-opacity: 0.5;}
.l64d20 {stroke: #848482; fill: #848482; fill-opacity: 0.5;}
.l81d4 {stroke: #882D17; fill: #882D17; fill-opacity: 0.5;}
.l64d16 {stroke: #DCD300; fill: #DCD300; fill-opacity: 0.5;}
.l65d20 {stroke: #008856; fill: #008856; fill-opacity: 0.5;}
.l66d20 {stroke: #E68FAC; fill: #E68FAC; fill-opacity: 0.5;}
.l67d16 {stroke: #654522; fill: #654522; fill-opacity: 0.5;}
.l64t59 {stroke: none; fill: #B3446C;}
.l64t5 {stroke: none; fill: #604E97;}
.l67t5 {stroke: none; fill: #DCD300;}
.l68t5 {stroke: none; fill: #882D17;}
.l69t5 {stroke: none; fill: #8DB600;}
.l70t5 {stroke: none; fill: #654522;}
.l71t5 {stroke: none; fill: #E25822;}
.l83t44 {stroke: none; fill: #654522;}
</style>
<g id="sky130_fd_sc_hd__tapvpwrvgnd_1">
<polygon id="0x59015f513030" class="l68d16" points="1.05,-0.9 3.6,-0.9 3.6,1 1.05,1"/>
<polygon id="0x59015f454180" class="l68d16" points="1.1,26.2 3.75,26.2 3.75,27.65 1.1,27.65"/>
<polygon id="0x59015f9d3bd0" class="l94d20" points="0,1.9 4.6,1.9 4.6,9.75 0,9.75"/>
<polygon id="0x59015ebd9740" class="l94d20" points="0,25.3 4.6,25.3 4.6,29.1 0,29.1"/>
<polygon id="0x59015f94f540" class="l93d44" points="0,-1.9 4.6,-1.9 4.6,1.9 0,1.9"/>
<polygon id="0x59015f880e30" class="l93d44" points="0,13.95 4.6,13.95 4.6,25.3 0,25.3"/>
<polygon id="0x59015f50bf50" class="l64d20" points="-1.9,13.05 6.5,13.05 6.5,29.1 -1.9,29.1"/>
<polygon id="0x59015f4db420" class="l66d44" points="1.45,5.55 3.15,5.55 3.15,7.25 1.45,7.25"/>
<polygon id="0x59015ee61920" class="l66d44" points="1.45,16.45 3.15,16.45 3.15,18.15 1.45,18.15"/>
<polygon id="0x59015f15e860" class="l66d44" points="1.45,21.1 3.15,21.1 3.15,22.8 1.45,22.8"/>
<polygon id="0x59015f11a540" class="l65d44" points="1.45,3.2 3.15,3.2 3.15,8.45 1.45,8.45"/>
<polygon id="0x59015f0170d0" class="l65d44" points="1.45,15.25 3.15,15.25 3.15,24 1.45,24"/>
<polygon id="0x59015f1fa990" class="l68d20" points="0,-2.4 4.6,-2.4 4.6,2.4 0,2.4"/>
<polygon id="0x59015f6801c0" class="l68d20" points="0,24.8 4.6,24.8 4.6,29.6 0,29.6"/>
<polygon id="0x59015f406e20" class="l67d44" points="1.45,-0.85 3.15,-0.85 3.15,0.85 1.45,0.85"/>
<polygon id="0x59015f319e10" class="l67d44" points="1.45,26.35 3.15,26.35 3.15,28.05 1.45,28.05"/>
<polygon id="0x59015fa86350" class="l67d20" points="0.85,0 3.75,0 3.75,8.1 0.85,8.1"/>
<polygon id="0x59015f7808e0" class="l67d20" points="0.85,14.7 3.75,14.7 3.75,27.2 0.85,27.2"/>
<polygon id="0x59015fa07460" class="l67d20" points="0,26.35 4.6,26.35 4.6,28.05 0,28.05"/>
<polygon id="0x59015f70f730" class="l67d20" points="0,-0.85 4.6,-0.85 4.6,0.85 0,0.85"/>
<polygon id="0x59015f6c5d30" class="l78d44" points="0,12.5 4.6,12.5 4.6,27.2 0,27.2"/>
<polygon id="0x59015f602530" class="l81d4" points="0,0 4.6,0 4.6,27.2 0,27.2"/>
<text id="0x59015f50f350" class="l68t5" text-anchor="middle" dominant-baseline="central" transform="translate(2.3 27.2) scale(0.1) scale(1 -1)">VPWR</text>
<text id="0x59015f4a43f0" class="l68t5" text-anchor="middle" dominant-baseline="central" transform="translate(2.3 0) scale(0.1) scale(1 -1)">VGND</text>
<text id="0x59015f404870" class="l83t44" text-anchor="start" dominant-baseline="text-before-edge" transform="translate(0 0) rotate(90) scale(0.1) scale(1 -1)">tapvpwrvgnd_1</text>
</g>
<g id="sky130_fd_sc_hd__decap_8">
<polygon id="0x59015f9aa600" class="l236d0" points="0,0 36.8,0 36.8,27.2 0,27.2"/>
<polygon id="0x59015f6cce10" class="l68d16" points="1.45,26.35 3.15,26.35 3.15,28.05 1.45,28.05"/>
<polygon id="0x59015f0323e0" class="l68d16" points="1.45,-0.85 3.15,-0.85 3.15,0.85 1.45,0.85"/>
<polygon id="0x59015efc98b0" class="l64d16" points="1.45,26.35 3.15,26.35 3.15,28.05 1.45,28.05"/>
<polygon id="0x59015efbe250" class="l122d16" points="1.45,-0.85 3.15,-0.85 3.15,0.85 1.45,0.85"/>
<polygon id="0x59015f383cc0" class="l67d20" points="36.8,0.85 35.95,0.85 35.95,8.55 17.35,8.55 17.35,13.75 0.85,13.75 0.85,0.85 0,0.85 0,-0.85 36.8,-0.85"/>
<polygon id="0x59015eff3910" class="l67d20" points="36.8,28.05 0,28.05 0,26.35 0.85,26.35 0.85,15.45 19.05,15.45 19.05,10.25 35.95,10.25 35.95,26.35 36.8,26.35"/>
<polygon id="0x59015ef406e0" class="l81d4" points="0,0 36.8,0 36.8,27.2 0,27.2"/>
<polygon id="0x59015ef40750" class="l65d20" points="1.35,16.15 35.45,16.15 35.45,24.85 1.35,24.85"/>
<polygon id="0x59015ee0c2a0" class="l65d20" points="1.35,2.35 35.45,2.35 35.45,7.85 1.35,7.85"/>
<polygon id="0x59015ee0c310" class="l78d44" points="0,12.5 36.8,12.5 36.8,27.2 0,27.2"/>
<polygon id="0x59015ec618b0" class="l93d44" points="0,-1.9 36.8,-1.9 36.8,10.15 0,10.15"/>
<polygon id="0x59015ec61920" class="l64d20" points="-1.9,13.05 38.7,13.05 38.7,29.1 -1.9,29.1"/>
<polygon id="0x59015f630c90" class="l94d20" points="0,14.85 36.8,14.85 36.8,29.1 0,29.1"/>
<polygon id="0x59015f73e0c0" class="l67d44" points="1.45,26.35 3.15,26.35 3.15,28.05 1.45,28.05"/>
<polygon id="0x59015f9052c0" class="l67d44" points="1.45,-0.85 3.15,-0.85 3.15,0.85 1.45,0.85"/>
<polygon id="0x59015fa86a40" class="l67d44" points="6.05,26.35 7.75,26.35 7.75,28.05 6.05,28.05"/>
<polygon id="0x59015ee8c490" class="l67d44" points="6.05,-0.85 7.75,-0.85 7.75,0.85 6.05,0.85"/>
<polygon id="0x59015fbde0d0" class="l67d44" points="10.65,26.35 12.35,26.35 12.35,28.05 10.65,28.05"/>
<polygon id="0x59015ee90fc0" class="l67d44" points="10.65,-0.85 12.35,-0.85 12.35,0.85 10.65,0.85"/>
<polygon id="0x59015f79f5c0" class="l67d44" points="15.25,26.35 16.95,26.35 16.95,28.05 15.25,28.05"/>
<polygon id="0x59015f6c9290" class="l67d44" points="15.25,-0.85 16.95,-0.85 16.95,0.85 15.25,0.85"/>
<polygon id="0x59015f3a2640" class="l67d44" points="19.85,26.35 21.55,26.35 21.55,28.05 19.85,28.05"/>
<polygon id="0x59015f3394b0" class="l67d44" points="19.85,-0.85 21.55,-0.85 21.55,0.85 19.85,0.85"/>
<polygon id="0x59015f2ac650" class="l67d44" points="24.45,26.35 26.15,26.35 26.15,28.05 24.45,28.05"/>
<polygon id="0x59015f00f050" class="l67d44" points="24.45,-0.85 26.15,-0.85 26.15,0.85 24.45,0.85"/>
<polygon id="0x59015ec26290" class="l67d44" points="29.05,26.35 30.75,26.35 30.75,28.05 29.05,28.05"/>
<polygon id="0x59015fbbbc80" class="l67d44" points="29.05,-0.85 30.75,-0.85 30.75,0.85 29.05,0.85"/>
<polygon id="0x59015f786f20" class="l67d44" points="33.65,26.35 35.35,26.35 35.35,28.05 33.65,28.05"/>
<polygon id="0x59015fbaed00" class="l67d44" points="33.65,-0.85 35.35,-0.85 35.35,0.85 33.65,0.85"/>
<polygon id="0x59015f9da5d0" class="l66d20" points="32.85,26.15 3.95,26.15 3.95,11.25 17.15,11.25 17.15,14.85 32.85,14.85"/>
<polygon id="0x59015f9da640" class="l66d20" points="32.85,12.75 19.25,12.75 19.25,9.15 3.95,9.15 3.95,1.05 32.85,1.05"/>
<polygon id="0x59015f9dbbb0" class="l66d44" points="1.75,22.55 3.45,22.55 3.45,24.25 1.75,24.25"/>
<polygon id="0x59015f988b90" class="l66d44" points="1.75,17.45 3.45,17.45 3.45,19.15 1.75,19.15"/>
<polygon id="0x59015f986810" class="l66d44" points="1.75,3.9 3.45,3.9 3.45,5.6 1.75,5.6"/>
<polygon id="0x59015f97aba0" class="l66d44" points="4.75,12.05 6.45,12.05 6.45,13.75 4.75,13.75"/>
<polygon id="0x59015f949930" class="l66d44" points="9.7,12.05 11.4,12.05 11.4,13.75 9.7,13.75"/>
<polygon id="0x59015f934970" class="l66d44" points="14.65,12.05 16.35,12.05 16.35,13.75 14.65,13.75"/>
<polygon id="0x59015f935d60" class="l66d44" points="33.35,3.9 35.05,3.9 35.05,5.6 33.35,5.6"/>
<polygon id="0x59015f405280" class="l66d44" points="20.05,10.25 21.75,10.25 21.75,11.95 20.05,11.95"/>
<polygon id="0x59015f873d50" class="l66d44" points="25.2,10.25 26.9,10.25 26.9,11.95 25.2,11.95"/>
<polygon id="0x59015f7b9350" class="l66d44" points="30.35,10.25 32.05,10.25 32.05,11.95 30.35,11.95"/>
<polygon id="0x59015f6bca20" class="l66d44" points="33.35,22.55 35.05,22.55 35.05,24.25 33.35,24.25"/>
<polygon id="0x59015f6b4c20" class="l66d44" points="33.35,17.45 35.05,17.45 35.05,19.15 33.35,19.15"/>
<polygon id="0x59015f654dd0" class="l95d20" points="36.8,13.45 17.35,13.45 17.35,14.75 0,14.75 0,9.75 19.05,9.75 19.05,9.25 36.8,9.25"/>
<polygon id="0x59015fbff330" class="l68d20" points="0,29.6 0,24.8 36.8,24.8 36.8,29.6"/>
<polygon id="0x59015fbff330" class="l68d20" points="0,2.4 0,-2.4 36.8,-2.4 36.8,2.4"/>
<text id="0x59015f9dc5a0" class="l68t5" text-anchor="middle" dominant-baseline="central" transform="translate(2.3 27.2) scale(0.1) scale(1 -1)">VPWR</text>
<text id="0x59015f5bf2f0" class="l68t5" text-anchor="middle" dominant-baseline="central" transform="translate(2.3 0) scale(0.1) scale(1 -1)">VGND</text>
<text id="0x59015f1a84f0" class="l64t5" text-anchor="middle" dominant-baseline="central" transform="translate(2.3 27.2) scale(0.1) scale(1 -1)">VPB</text>
<text id="0x59015f178f00" class="l64t59" text-anchor="middle" dominant-baseline="central" transform="translate(2.3 0) scale(0.1) scale(1 -1)">VNB</text>
<text id="0x59015ef10f00" class="l83t44" text-anchor="start" dominant-baseline="text-before-edge" transform="translate(0 0) rotate(90) scale(0.1) scale(1 -1)">decap_8</text>
</g>
<g id="sky130_ef_sc_hd__decap_12">
<polygon id="0x59015f812ae0" class="l236d0" points="0,0 55.2,0 55.2,27.2 0,27.2"/>
<polygon id="0x59015f6cdfb0" class="l68d16" points="1.45,-0.85 3.15,-0.85 3.15,0.85 1.45,0.85"/>
<polygon id="0x59015f747920" class="l68d16" points="1.45,26.35 3.15,26.35 3.15,28.05 1.45,28.05"/>
<polygon id="0x59015f8470c0" class="l64d16" points="1.45,26.35 3.15,26.35 3.15,28.05 1.45,28.05"/>
<polygon id="0x59015fa81ff0" class="l122d16" points="1.45,-0.85 3.15,-0.85 3.15,0.85 1.45,0.85"/>
<polygon id="0x59015f9b6e50" class="l65d20" points="1.35,16.15 53.85,16.15 53.85,24.85 1.35,24.85"/>
<polygon id="0x59015f8c8d10" class="l65d20" points="1.35,2.35 53.85,2.35 53.85,7.85 1.35,7.85"/>
<polygon id="0x59015f7739f0" class="l78d44" points="0,12.5 55.2,12.5 55.2,27.2 0,27.2"/>
<polygon id="0x59015f6cf590" class="l93d44" points="0,-1.9 55.2,-1.9 55.2,10.15 0,10.15"/>
<polygon id="0x59015fa75bc0" class="l64d20" points="-1.9,13.05 57.1,13.05 57.1,29.1 -1.9,29.1"/>
<polygon id="0x59015f9a1c10" class="l94d20" points="0,14.85 55.2,14.85 55.2,29.1 0,29.1"/>
<polygon id="0x59015f8b82c0" class="l81d4" points="0,0 55.2,0 55.2,27.2 0,27.2"/>
<polygon id="0x59015f89e510" class="l67d44" points="24.45,-0.85 26.15,-0.85 26.15,0.85 24.45,0.85"/>
<polygon id="0x59015f895030" class="l67d44" points="29.05,26.35 30.75,26.35 30.75,28.05 29.05,28.05"/>
<polygon id="0x59015f708720" class="l67d44" points="1.45,26.35 3.15,26.35 3.15,28.05 1.45,28.05"/>
<polygon id="0x59015f724090" class="l67d44" points="1.45,-0.85 3.15,-0.85 3.15,0.85 1.45,0.85"/>
<polygon id="0x59015f6db2a0" class="l67d44" points="6.05,26.35 7.75,26.35 7.75,28.05 6.05,28.05"/>
<polygon id="0x59015f6b71a0" class="l67d44" points="6.05,-0.85 7.75,-0.85 7.75,0.85 6.05,0.85"/>
<polygon id="0x59015f5f2b00" class="l67d44" points="10.65,26.35 12.35,26.35 12.35,28.05 10.65,28.05"/>
<polygon id="0x59015f684060" class="l67d44" points="10.65,-0.85 12.35,-0.85 12.35,0.85 10.65,0.85"/>
<polygon id="0x59015fa89b90" class="l67d44" points="15.25,26.35 16.95,26.35 16.95,28.05 15.25,28.05"/>
<polygon id="0x59015f985b70" class="l67d44" points="15.25,-0.85 16.95,-0.85 16.95,0.85 15.25,0.85"/>
<polygon id="0x59015ee9ad60" class="l67d44" points="19.85,26.35 21.55,26.35 21.55,28.05 19.85,28.05"/>
<polygon id="0x59015fa877c0" class="l67d44" points="19.85,-0.85 21.55,-0.85 21.55,0.85 19.85,0.85"/>
<polygon id="0x59015f9ac210" class="l67d44" points="24.45,26.35 26.15,26.35 26.15,28.05 24.45,28.05"/>
<polygon id="0x59015f949ca0" class="l67d44" points="29.05,-0.85 30.75,-0.85 30.75,0.85 29.05,0.85"/>
<polygon id="0x59015f8d5f90" class="l67d44" points="33.65,26.35 35.35,26.35 35.35,28.05 33.65,28.05"/>
<polygon id="0x59015f638420" class="l67d44" points="33.65,-0.85 35.35,-0.85 35.35,0.85 33.65,0.85"/>
<polygon id="0x59015f897e70" class="l67d44" points="38.25,26.35 39.95,26.35 39.95,28.05 38.25,28.05"/>
<polygon id="0x59015f7cd910" class="l67d44" points="38.25,-0.85 39.95,-0.85 39.95,0.85 38.25,0.85"/>
<polygon id="0x59015f766c00" class="l67d44" points="42.85,26.35 44.55,26.35 44.55,28.05 42.85,28.05"/>
<polygon id="0x59015f7230f0" class="l67d44" points="42.85,-0.85 44.55,-0.85 44.55,0.85 42.85,0.85"/>
<polygon id="0x59015f6fed40" class="l67d44" points="47.45,26.35 49.15,26.35 49.15,28.05 47.45,28.05"/>
<polygon id="0x59015f5ef430" class="l67d44" points="47.45,-0.85 49.15,-0.85 49.15,0.85 47.45,0.85"/>
<polygon id="0x59015f95c810" class="l67d44" points="52.05,26.35 53.75,26.35 53.75,28.05 52.05,28.05"/>
<polygon id="0x59015fa93a50" class="l67d44" points="52.05,-0.85 53.75,-0.85 53.75,0.85 52.05,0.85"/>
<polygon id="0x59015f769cd0" class="l95d20" points="0,9.25 55.2,9.25 55.2,14.75 0,14.75"/>
<polygon id="0x59015f9dce30" class="l66d20" points="51.25,26.15 3.95,26.15 3.95,11.25 26.45,11.25 26.45,14.85 51.25,14.85"/>
<polygon id="0x59015f4e7360" class="l66d20" points="51.25,12.75 28.55,12.75 28.55,9.15 3.95,9.15 3.95,1.05 51.25,1.05"/>
<polygon id="0x59015f535370" class="l67d20" points="16.7,6.3 20.1,6.3 20.1,14.6 16.7,14.6"/>
<polygon id="0x59015f6800b0" class="l67d20" points="0,26.35 55.2,26.35 55.2,28.05 0,28.05"/>
<polygon id="0x59015f016fb0" class="l67d20" points="0.85,22 54.3,22 54.3,26.35 0.85,26.35"/>
<polygon id="0x59015f15e740" class="l67d20" points="0,-0.85 55.2,-0.85 55.2,0.85 0,0.85"/>
<polygon id="0x59015ee61800" class="l67d20" points="34.9,9.5 38.4,9.5 38.4,22 34.9,22"/>
<polygon id="0x59015f50be30" class="l67d20" points="0.85,0.85 54.3,0.85 54.3,6.3 0.85,6.3"/>
<polygon id="0x59015f04f730" class="l66d44" points="1.75,22.55 3.45,22.55 3.45,24.25 1.75,24.25"/>
<polygon id="0x59015ea14810" class="l66d44" points="51.75,22.55 53.45,22.55 53.45,24.25 51.75,24.25"/>
<polygon id="0x59015f880d10" class="l66d44" points="51.75,3.9 53.45,3.9 53.45,5.6 51.75,5.6"/>
<polygon id="0x59015ec617f0" class="l66d44" points="35.75,10.25 37.45,10.25 37.45,11.95 35.75,11.95"/>
<polygon id="0x59015ee90f00" class="l66d44" points="1.75,3.9 3.45,3.9 3.45,5.6 1.75,5.6"/>
<polygon id="0x59015f178e40" class="l66d44" points="17.55,12.05 19.25,12.05 19.25,13.75 17.55,13.75"/>
<polygon id="0x59015fbff330" class="l68d20" points="0,29.6 0,24.8 55.2,24.8 55.2,29.6"/>
<polygon id="0x59015fbff330" class="l68d20" points="0,2.4 0,-2.4 55.2,-2.4 55.2,2.4"/>
<text id="0x59015f319d00" class="l68t5" text-anchor="middle" dominant-baseline="central" transform="translate(2.3 0) scale(0.1) scale(1 -1)">VGND</text>
<text id="0x59015f307590" class="l68t5" text-anchor="middle" dominant-baseline="central" transform="translate(2.3 27.2) scale(0.1) scale(1 -1)">VPWR</text>
<text id="0x59015f406d10" class="l64t5" text-anchor="middle" dominant-baseline="central" transform="translate(2.3 27.2) scale(0.1) scale(1 -1)">VPB</text>
<text id="0x59015f48d7b0" class="l64t59" text-anchor="middle" dominant-baseline="central" transform="translate(2.3 0) scale(0.1) scale(1 -1)">VNB</text>
<text id="0x59015f331ba0" class="l83t44" text-anchor="start" dominant-baseline="text-before-edge" transform="translate(0 0) rotate(90) scale(0.1) scale(1 -1)">decap_12</text>
</g>
<g id="sky130_fd_sc_hd__decap_6">
<polygon id="0x59015f55c350" class="l236d0" points="0,0 27.6,0 27.6,27.2 0,27.2"/>
<polygon id="0x59015f1a05b0" class="l68d16" points="1.45,26.35 3.15,26.35 3.15,28.05 1.45,28.05"/>
<polygon id="0x59015f1bcb50" class="l68d16" points="1.45,-0.85 3.15,-0.85 3.15,0.85 1.45,0.85"/>
<polygon id="0x59015f11eb20" class="l64d16" points="1.45,26.35 3.15,26.35 3.15,28.05 1.45,28.05"/>
<polygon id="0x59015f0fa820" class="l122d16" points="1.45,-0.85 3.15,-0.85 3.15,0.85 1.45,0.85"/>
<polygon id="0x59015f0950e0" class="l65d20" points="1.35,16.15 26.25,16.15 26.25,24.85 1.35,24.85"/>
<polygon id="0x59015f050cb0" class="l65d20" points="1.35,2.35 26.25,2.35 26.25,7.85 1.35,7.85"/>
<polygon id="0x59015f0355b0" class="l81d4" points="0,0 27.6,0 27.6,27.2 0,27.2"/>
<polygon id="0x59015f652cb0" class="l78d44" points="0,12.5 27.6,12.5 27.6,27.2 0,27.2"/>
<polygon id="0x59015f0695a0" class="l93d44" points="0,-1.9 27.6,-1.9 27.6,10.15 0,10.15"/>
<polygon id="0x59015f0253f0" class="l64d20" points="-1.9,13.05 29.5,13.05 29.5,29.1 -1.9,29.1"/>
<polygon id="0x59015f01b980" class="l94d20" points="0,14.85 27.6,14.85 27.6,29.1 0,29.1"/>
<polygon id="0x59015f018860" class="l67d44" points="1.45,26.35 3.15,26.35 3.15,28.05 1.45,28.05"/>
<polygon id="0x59015efc04f0" class="l67d44" points="1.45,-0.85 3.15,-0.85 3.15,0.85 1.45,0.85"/>
<polygon id="0x59015efb8450" class="l67d44" points="6.05,26.35 7.75,26.35 7.75,28.05 6.05,28.05"/>
<polygon id="0x59015eea0310" class="l67d44" points="6.05,-0.85 7.75,-0.85 7.75,0.85 6.05,0.85"/>
<polygon id="0x59015ef01c20" class="l67d44" points="10.65,26.35 12.35,26.35 12.35,28.05 10.65,28.05"/>
<polygon id="0x59015eee4200" class="l67d44" points="10.65,-0.85 12.35,-0.85 12.35,0.85 10.65,0.85"/>
<polygon id="0x59015eedfe20" class="l67d44" points="15.25,26.35 16.95,26.35 16.95,28.05 15.25,28.05"/>
<polygon id="0x59015eea72a0" class="l67d44" points="15.25,-0.85 16.95,-0.85 16.95,0.85 15.25,0.85"/>
<polygon id="0x59015eea3f60" class="l67d44" points="19.85,26.35 21.55,26.35 21.55,28.05 19.85,28.05"/>
<polygon id="0x59015fbc3d60" class="l67d44" points="19.85,-0.85 21.55,-0.85 21.55,0.85 19.85,0.85"/>
<polygon id="0x59015f80da60" class="l67d44" points="24.45,26.35 26.15,26.35 26.15,28.05 24.45,28.05"/>
<polygon id="0x59015f8008e0" class="l67d44" points="24.45,-0.85 26.15,-0.85 26.15,0.85 24.45,0.85"/>
<polygon id="0x59015f737e40" class="l66d20" points="23.65,26.15 3.95,26.15 3.95,11.25 12.75,11.25 12.75,14.85 23.65,14.85"/>
<polygon id="0x59015f7cf1d0" class="l66d20" points="23.65,12.75 14.85,12.75 14.85,9.15 3.95,9.15 3.95,1.05 23.65,1.05"/>
<polygon id="0x59015f76a2a0" class="l67d20" points="27.6,0.85 26.75,0.85 26.75,8.55 12.95,8.55 12.95,13.75 0.85,13.75 0.85,0.85 0,0.85 0,-0.85 27.6,-0.85"/>
<polygon id="0x59015f6eb4a0" class="l67d20" points="27.6,28.05 0,28.05 0,26.35 0.85,26.35 0.85,15.45 14.65,15.45 14.65,10.25 26.75,10.25 26.75,26.35 27.6,26.35"/>
<polygon id="0x59015f6d06c0" class="l95d20" points="27.6,13.45 12.95,13.45 12.95,14.75 0,14.75 0,9.75 14.65,9.75 14.65,9.25 27.6,9.25"/>
<polygon id="0x59015f68acd0" class="l66d44" points="1.75,22.55 3.45,22.55 3.45,24.25 1.75,24.25"/>
<polygon id="0x59015f685fe0" class="l66d44" points="24.15,3.9 25.85,3.9 25.85,5.6 24.15,5.6"/>
<polygon id="0x59015f69e010" class="l66d44" points="24.15,22.55 25.85,22.55 25.85,24.25 24.15,24.25"/>
<polygon id="0x59015f679bb0" class="l66d44" points="24.15,17.45 25.85,17.45 25.85,19.15 24.15,19.15"/>
<polygon id="0x59015f664630" class="l66d44" points="1.75,17.45 3.45,17.45 3.45,19.15 1.75,19.15"/>
<polygon id="0x59015f6150e0" class="l66d44" points="1.75,3.9 3.45,3.9 3.45,5.6 1.75,5.6"/>
<polygon id="0x59015f606290" class="l66d44" points="4.75,12.05 6.45,12.05 6.45,13.75 4.75,13.75"/>
<polygon id="0x59015f1cb930" class="l66d44" points="10.25,12.05 11.95,12.05 11.95,13.75 10.25,13.75"/>
<polygon id="0x59015f1b1560" class="l66d44" points="15.65,10.25 17.35,10.25 17.35,11.95 15.65,11.95"/>
<polygon id="0x59015f1a4590" class="l66d44" points="21.15,10.25 22.85,10.25 22.85,11.95 21.15,11.95"/>
<polygon id="0x59015fbff330" class="l68d20" points="0,29.6 0,24.8 27.6,24.8 27.6,29.6"/>
<polygon id="0x59015fbff330" class="l68d20" points="0,2.4 0,-2.4 27.6,-2.4 27.6,2.4"/>
<text id="0x59015f992d40" class="l68t5" text-anchor="middle" dominant-baseline="central" transform="translate(2.3 27.2) scale(0.1) scale(1 -1)">VPWR</text>
<text id="0x59015f986080" class="l68t5" text-anchor="middle" dominant-baseline="central" transform="translate(2.3 0) scale(0.1) scale(1 -1)">VGND</text>
<text id="0x59015f7ed9f0" class="l64t5" text-anchor="middle" dominant-baseline="central" transform="translate(2.3 27.2) scale(0.1) scale(1 -1)">VPB</text>
<text id="0x59015f750940" class="l64t59" text-anchor="middle" dominant-baseline="central" transform="translate(2.3 0) scale(0.1) scale(1 -1)">VNB</text>
<text id="0x59015f091a00" class="l83t44" text-anchor="start" dominant-baseline="text-before-edge" transform="translate(0 0) rotate(90) scale(0.1) scale(1 -1)">decap_6</text>
</g>
<g id="sky130_fd_sc_hd__decap_3">
<polygon id="0x59015f4540d0" class="l236d0" points="0,0 13.8,0 13.8,27.2 0,27.2"/>
<polygon id="0x59015f639f30" class="l68d16" points="1.45,26.35 3.15,26.35 3.15,28.05 1.45,28.05"/>
<polygon id="0x59015ec261d0" class="l68d16" points="1.45,-0.85 3.15,-0.85 3.15,0.85 1.45,0.85"/>
<polygon id="0x59015f00ef90" class="l64d16" points="1.45,26.35 3.15,26.35 3.15,28.05 1.45,28.05"/>
<polygon id="0x59015f1f0f60" class="l122d16" points="1.45,-0.85 3.15,-0.85 3.15,0.85 1.45,0.85"/>
<polygon id="0x59015f314b40" class="l65d20" points="1.35,2.35 12.45,2.35 12.45,7.85 1.35,7.85"/>
<polygon id="0x59015f3a2580" class="l65d20" points="1.35,16.15 12.45,16.15 12.45,24.85 1.35,24.85"/>
<polygon id="0x59015f612e60" class="l78d44" points="0,12.5 13.8,12.5 13.8,27.2 0,27.2"/>
<polygon id="0x59015f6bc710" class="l64d20" points="-1.9,13.05 15.7,13.05 15.7,29.1 -1.9,29.1"/>
<polygon id="0x59015f96fe80" class="l94d20" points="0,14.85 13.8,14.85 13.8,29.1 0,29.1"/>
<polygon id="0x59015f8ee0b0" class="l67d44" points="10.65,-0.85 12.35,-0.85 12.35,0.85 10.65,0.85"/>
<polygon id="0x59015f78ef60" class="l67d44" points="10.65,26.35 12.35,26.35 12.35,28.05 10.65,28.05"/>
<polygon id="0x59015f7cc290" class="l67d44" points="6.05,-0.85 7.75,-0.85 7.75,0.85 6.05,0.85"/>
<polygon id="0x59015f86e110" class="l67d44" points="6.05,26.35 7.75,26.35 7.75,28.05 6.05,28.05"/>
<polygon id="0x59015ec06950" class="l67d44" points="1.45,-0.85 3.15,-0.85 3.15,0.85 1.45,0.85"/>
<polygon id="0x59015f926e90" class="l67d44" points="1.45,26.35 3.15,26.35 3.15,28.05 1.45,28.05"/>
<polygon id="0x59015ebd9620" class="l81d4" points="0,0 13.8,0 13.8,27.2 0,27.2"/>
<polygon id="0x59015f314bf0" class="l93d44" points="0,-1.9 13.8,-1.9 13.8,10.15 0,10.15"/>
<polygon id="0x59015f00dba0" class="l95d20" points="13.8,13.45 6.05,13.45 6.05,14.75 0,14.75 0,9.75 7.75,9.75 7.75,9.05 13.8,9.05"/>
<polygon id="0x59015f4d0080" class="l67d20" points="13.8,28.05 0,28.05 0,26.35 0.85,26.35 0.85,15.45 7.75,15.45 7.75,10.05 12.95,10.05 12.95,26.35 13.8,26.35"/>
<polygon id="0x59015f90d050" class="l67d20" points="13.8,0.85 12.95,0.85 12.95,8.35 6.05,8.35 6.05,13.75 0.85,13.75 0.85,0.85 0,0.85 0,-0.85 13.8,-0.85"/>
<polygon id="0x59015fbbad80" class="l66d20" points="11.25,12.55 7.95,12.55 7.95,9.15 3.95,9.15 3.95,1.05 9.85,1.05 9.85,9.25 11.25,9.25"/>
<polygon id="0x59015fa72d60" class="l66d20" points="9.85,26.15 3.95,26.15 3.95,14.55 2.55,14.55 2.55,11.25 5.85,11.25 5.85,14.65 9.85,14.65"/>
<polygon id="0x59015f9c9f00" class="l66d44" points="10.35,4 12.05,4 12.05,5.7 10.35,5.7"/>
<polygon id="0x59015f9ad510" class="l66d44" points="10.35,17.8 12.05,17.8 12.05,19.5 10.35,19.5"/>
<polygon id="0x59015f92e690" class="l66d44" points="10.35,22.55 12.05,22.55 12.05,24.25 10.35,24.25"/>
<polygon id="0x59015f62f170" class="l66d44" points="8.75,10.05 10.45,10.05 10.45,11.75 8.75,11.75"/>
<polygon id="0x59015f824580" class="l66d44" points="3.35,12.05 5.05,12.05 5.05,13.75 3.35,13.75"/>
<polygon id="0x59015f743a00" class="l66d44" points="1.75,4 3.45,4 3.45,5.7 1.75,5.7"/>
<polygon id="0x59015f6ba190" class="l66d44" points="1.75,17.8 3.45,17.8 3.45,19.5 1.75,19.5"/>
<polygon id="0x59015fa6d9e0" class="l66d44" points="1.75,22.55 3.45,22.55 3.45,24.25 1.75,24.25"/>
<polygon id="0x59015fbff330" class="l68d20" points="0,29.6 0,24.8 13.8,24.8 13.8,29.6"/>
<polygon id="0x59015fbff330" class="l68d20" points="0,2.4 0,-2.4 13.8,-2.4 13.8,2.4"/>
<text id="0x59015f4fe260" class="l68t5" text-anchor="middle" dominant-baseline="central" transform="translate(2.3 27.2) scale(0.1) scale(1 -1)">VPWR</text>
<text id="0x59015f55daa0" class="l68t5" text-anchor="middle" dominant-baseline="central" transform="translate(2.3 0) scale(0.1) scale(1 -1)">VGND</text>
<text id="0x59015f92a550" class="l64t5" text-anchor="middle" dominant-baseline="central" transform="translate(2.3 27.2) scale(0.1) scale(1 -1)">VPB</text>
<text id="0x59015f8cfb20" class="l64t59" text-anchor="middle" dominant-baseline="central" transform="translate(2.3 0) scale(0.1) scale(1 -1)">VNB</text>
<text id="0x59015f9aa340" class="l83t44" text-anchor="start" dominant-baseline="text-before-edge" transform="translate(0 0) rotate(90) scale(0.1) scale(1 -1)">decap_3</text>
</g>
<g id="sky130_fd_sc_hd__clkbuf_4">
<polygon id="0x59015eee5d00" class="l236d0" points="0,0 27.6,0 27.6,27.2 0,27.2"/>
<polygon id="0x59015eee5d70" class="l68d16" points="1.45,-0.85 3.15,-0.85 3.15,0.85 1.45,0.85"/>
<polygon id="0x59015ef531c0" class="l68d16" points="1.45,26.35 3.15,26.35 3.15,28.05 1.45,28.05"/>
<polygon id="0x59015ef53290" class="l64d16" points="1.45,26.35 3.15,26.35 3.15,28.05 1.45,28.05"/>
<polygon id="0x59015f087630" class="l122d16" points="1.45,-0.85 3.15,-0.85 3.15,0.85 1.45,0.85"/>
<polygon id="0x59015fbb0e80" class="l67d44" points="24.45,-0.85 26.15,-0.85 26.15,0.85 24.45,0.85"/>
<polygon id="0x59015fbbc860" class="l67d44" points="24.45,26.35 26.15,26.35 26.15,28.05 24.45,28.05"/>
<polygon id="0x59015f4aeb90" class="l67d44" points="19.85,-0.85 21.55,-0.85 21.55,0.85 19.85,0.85"/>
<polygon id="0x59015f4aec60" class="l67d44" points="19.85,26.35 21.55,26.35 21.55,28.05 19.85,28.05"/>
<polygon id="0x59015f917b30" class="l67d44" points="15.25,-0.85 16.95,-0.85 16.95,0.85 15.25,0.85"/>
<polygon id="0x59015f917c00" class="l67d44" points="15.25,26.35 16.95,26.35 16.95,28.05 15.25,28.05"/>
<polygon id="0x59015f8effe0" class="l67d44" points="10.65,-0.85 12.35,-0.85 12.35,0.85 10.65,0.85"/>
<polygon id="0x59015f8cca70" class="l67d44" points="10.65,26.35 12.35,26.35 12.35,28.05 10.65,28.05"/>
<polygon id="0x59015f8ccb40" class="l67d44" points="6.05,-0.85 7.75,-0.85 7.75,0.85 6.05,0.85"/>
<polygon id="0x59015f88cca0" class="l67d44" points="6.05,26.35 7.75,26.35 7.75,28.05 6.05,28.05"/>
<polygon id="0x59015f7bbd60" class="l67d44" points="1.45,-0.85 3.15,-0.85 3.15,0.85 1.45,0.85"/>
<polygon id="0x59015f7bbe30" class="l67d44" points="1.45,26.35 3.15,26.35 3.15,28.05 1.45,28.05"/>
<polygon id="0x59015f6e2cb0" class="l94d20" points="0,13.55 27.6,13.55 27.6,29.1 0,29.1"/>
<polygon id="0x59015f6e2d80" class="l64d20" points="-1.9,13.05 29.5,13.05 29.5,29.1 -1.9,29.1"/>
<polygon id="0x59015f67b890" class="l93d44" points="0,-1.9 27.6,-1.9 27.6,10.15 0,10.15"/>
<polygon id="0x59015f5a64f0" class="l78d44" points="0,12.5 27.6,12.5 27.6,27.2 0,27.2"/>
<polygon id="0x59015f5a65c0" class="l95d20" points="0,9.75 27.6,9.75 27.6,13.45 0,13.45"/>
<polygon id="0x59015f26a270" class="l81d4" points="0,0 27.6,0 27.6,27.2 0,27.2"/>
<polygon id="0x59015f166fa0" class="l67d20" points="4.25,7.55 7.75,7.55 7.75,13.25 4.25,13.25"/>
<polygon id="0x59015f167070" class="l67d20" points="27.6,0.85 26.15,0.85 26.15,5.65 23.35,5.65 23.35,0.85 17.3,0.85 17.3,5.65 14.75,5.65 14.75,0.85 8.3,0.85 8.3,5.65 5.55,5.65 5.55,0.85 0,0.85 0,-0.85 27.6,-0.85"/>
<polygon id="0x59015f1a3ed0" class="l67d20" points="26.6,15.85 21.65,15.85 21.65,24.65 19.05,24.65 19.05,20.05 13.05,20.05 13.05,24.65 10.45,24.65 10.45,18.35 19.05,18.35 19.05,14.15 22.55,14.15 22.55,9.05 10.1,9.05 10.1,3.45 13.05,3.45 13.05,7.35 19.05,7.35 19.05,3.45 21.65,3.45 21.65,7.35 26.6,7.35"/>
<polygon id="0x59015f1a3f40" class="l67d20" points="20.85,12.45 11.15,12.45 11.15,16.65 3.95,16.65 3.95,24.65 0.85,24.65 0.85,2.55 3.85,2.55 3.85,5.85 2.55,5.85 2.55,14.95 9.45,14.95 9.45,10.75 20.85,10.75"/>
<polygon id="0x59015f14e120" class="l67d20" points="27.6,28.05 0,28.05 0,26.35 5.65,26.35 5.65,18.35 8.75,18.35 8.75,26.35 14.75,26.35 14.75,21.75 17.3,21.75 17.3,26.35 23.35,26.35 23.35,17.65 26.2,17.65 26.2,26.35 27.6,26.35"/>
<polygon id="0x59015f14e190" class="l66d44" points="15.2,3.15 16.9,3.15 16.9,4.85 15.2,4.85"/>
<polygon id="0x59015f150460" class="l66d44" points="18.35,10.75 20.05,10.75 20.05,12.45 18.35,12.45"/>
<polygon id="0x59015f1504d0" class="l66d44" points="19.45,18.75 21.15,18.75 21.15,20.45 19.45,20.45"/>
<polygon id="0x59015f082890" class="l66d44" points="6.05,19.15 7.75,19.15 7.75,20.85 6.05,20.85"/>
<polygon id="0x59015f082960" class="l66d44" points="19.45,15.35 21.15,15.35 21.15,17.05 19.45,17.05"/>
<polygon id="0x59015eec0eb0" class="l66d44" points="1.75,22.15 3.45,22.15 3.45,23.85 1.75,23.85"/>
<polygon id="0x59015eead7a0" class="l66d44" points="4.25,10.75 5.95,10.75 5.95,12.45 4.25,12.45"/>
<polygon id="0x59015eead870" class="l66d44" points="1.75,16.05 3.45,16.05 3.45,17.75 1.75,17.75"/>
<polygon id="0x59015fc0f590" class="l66d44" points="1.75,3.35 3.45,3.35 3.45,5.05 1.75,5.05"/>
<polygon id="0x59015f07f830" class="l66d44" points="6.05,22.55 7.75,22.55 7.75,24.25 6.05,24.25"/>
<polygon id="0x59015f07f900" class="l66d44" points="23.75,18.45 25.45,18.45 25.45,20.15 23.75,20.15"/>
<polygon id="0x59015f34e5e0" class="l66d44" points="6.05,3.15 7.75,3.15 7.75,4.85 6.05,4.85"/>
<polygon id="0x59015f09ab80" class="l66d44" points="10.85,20.8 12.55,20.8 12.55,22.5 10.85,22.5"/>
<polygon id="0x59015f09ac50" class="l66d44" points="10.9,4.25 12.6,4.25 12.6,5.95 10.9,5.95"/>
<polygon id="0x59015f577830" class="l66d44" points="11.55,10.75 13.25,10.75 13.25,12.45 11.55,12.45"/>
<polygon id="0x59015f936da0" class="l66d44" points="14.95,10.75 16.65,10.75 16.65,12.45 14.95,12.45"/>
<polygon id="0x59015f936e70" class="l66d44" points="15.15,22.55 16.85,22.55 16.85,24.25 15.15,24.25"/>
<polygon id="0x59015f9887f0" class="l66d44" points="19.45,22.15 21.15,22.15 21.15,23.85 19.45,23.85"/>
<polygon id="0x59015f8d2850" class="l66d44" points="19.5,4.25 21.2,4.25 21.2,5.95 19.5,5.95"/>
<polygon id="0x59015f8d2920" class="l66d44" points="23.75,21.85 25.45,21.85 25.45,23.55 23.75,23.55"/>
<polygon id="0x59015f4f3a20" class="l66d44" points="23.8,3.15 25.5,3.15 25.5,4.85 23.8,4.85"/>
<polygon id="0x59015f480e60" class="l66d20" points="23.25,11.85 23.2,11.85 23.2,26.15 21.7,26.15 21.7,12.95 18.9,12.95 18.9,26.15 17.4,26.15 17.4,12.95 14.6,12.95 14.6,26.15 13.1,26.15 13.1,12.95 10.3,12.95 10.3,26.15 8.8,26.15 8.8,10.5 8.85,10.5 8.85,1.05 10.35,1.05 10.35,10.2 13.15,10.2 13.15,1.05 14.65,1.05 14.65,10.2 17.45,10.2 17.45,1.05 18.95,1.05 18.95,10.2 21.75,10.2 21.75,1.05 23.25,1.05"/>
<polygon id="0x59015f480ed0" class="l66d20" points="6.45,13.25 5.5,13.25 5.5,26.15 4,26.15 4,13.25 3.45,13.25 3.45,9.95 4,9.95 4,1.05 5.5,1.05 5.5,9.95 6.45,9.95"/>
<polygon id="0x59015f480f40" class="l65d20" points="1.35,2.35 26.15,2.35 26.15,6.55 1.35,6.55"/>
<polygon id="0x59015ebe7e10" class="l65d20" points="1.35,14.85 26.2,14.85 26.2,24.85 1.35,24.85"/>
<polygon id="0x59015ebe7ee0" class="l67d16" points="6.05,11.05 7.75,11.05 7.75,12.75 6.05,12.75"/>
<polygon id="0x59015f7537b0" class="l67d16" points="6.05,7.65 7.75,7.65 7.75,9.35 6.05,9.35"/>
<polygon id="0x59015f78a230" class="l67d16" points="19.85,14.45 21.55,14.45 21.55,16.15 19.85,16.15"/>
<polygon id="0x59015f78a300" class="l67d16" points="24.45,11.05 26.15,11.05 26.15,12.75 24.45,12.75"/>
<polygon id="0x59015f8a5f80" class="l67d16" points="24.45,7.65 26.15,7.65 26.15,9.35 24.45,9.35"/>
<polygon id="0x59015fbff330" class="l68d20" points="0,2.4 0,-2.4 27.6,-2.4 27.6,2.4"/>
<polygon id="0x59015fbff330" class="l68d20" points="0,29.6 0,24.8 27.6,24.8 27.6,29.6"/>
<text id="0x59015f086cd0" class="l67t5" text-anchor="middle" dominant-baseline="central" transform="translate(20.7 15.3) scale(0.1) scale(1 -1)">X</text>
<text id="0x59015f086d60" class="l67t5" text-anchor="middle" dominant-baseline="central" transform="translate(6.9 8.5) scale(0.1) scale(1 -1)">A</text>
<text id="0x59015effe780" class="l67t5" text-anchor="middle" dominant-baseline="central" transform="translate(25.3 8.5) scale(0.1) scale(1 -1)">X</text>
<text id="0x59015effe810" class="l67t5" text-anchor="middle" dominant-baseline="central" transform="translate(6.9 11.9) scale(0.1) scale(1 -1)">A</text>
<text id="0x59015ec63be0" class="l67t5" text-anchor="middle" dominant-baseline="central" transform="translate(25.3 11.9) scale(0.1) scale(1 -1)">X</text>
<text id="0x59015ec63c70" class="l68t5" text-anchor="middle" dominant-baseline="central" transform="translate(2.3 0) scale(0.1) scale(1 -1)">VGND</text>
<text id="0x59015f779f30" class="l68t5" text-anchor="middle" dominant-baseline="central" transform="translate(2.3 27.2) scale(0.1) scale(1 -1)">VPWR</text>
<text id="0x59015f130300" class="l64t5" text-anchor="middle" dominant-baseline="central" transform="translate(2.3 27.2) scale(0.1) scale(1 -1)">VPB</text>
<text id="0x59015f130390" class="l64t59" text-anchor="middle" dominant-baseline="central" transform="translate(2.3 0) scale(0.1) scale(1 -1)">VNB</text>
<text id="0x59015f87aa60" class="l83t44" text-anchor="start" dominant-baseline="text-before-edge" transform="translate(0 0) rotate(90) scale(0.1) scale(1 -1)">clkbuf_4</text>
</g>
<g id="sky130_fd_sc_hd__clkbuf_1">
<polygon id="0x59015f0e5590" class="l236d0" points="0,0 13.8,0 13.8,27.2 0,27.2"/>
<polygon id="0x59015e934180" class="l68d16" points="10.65,-0.85 12.35,-0.85 12.35,0.85 10.65,0.85"/>
<polygon id="0x59015edaa920" class="l68d16" points="10.65,26.35 12.35,26.35 12.35,28.05 10.65,28.05"/>
<polygon id="0x59015ed90760" class="l64d16" points="10.65,26.35 12.35,26.35 12.35,28.05 10.65,28.05"/>
<polygon id="0x59015ed907d0" class="l122d16" points="10.65,-0.85 12.35,-0.85 12.35,0.85 10.65,0.85"/>
<polygon id="0x59015eb093e0" class="l67d20" points="0.85,24.65 3.55,24.65 3.55,15.6 2.55,15.6 2.55,7.6 3.45,7.6 3.45,2.55 0.85,2.55"/>
<polygon id="0x59015ed7f8e0" class="l67d20" points="0,0.85 5.25,0.85 5.25,4.65 8.55,4.65 8.55,0.85 13.8,0.85 13.8,-0.85 0,-0.85"/>
<polygon id="0x59015ed7f950" class="l67d20" points="4.25,13.9 5.4,13.9 5.4,17.05 10.35,17.05 10.35,24.65 12.05,24.65 12.05,15.35 7.1,15.35 7.1,8.05 12.05,8.05 12.05,2.55 10.35,2.55 10.35,6.35 5.4,6.35 5.4,10.6 4.25,10.6"/>
<polygon id="0x59015ed31f50" class="l67d20" points="9.45,9.85 12.75,9.85 12.75,13.55 9.45,13.55"/>
<polygon id="0x59015ec66350" class="l67d20" points="0,28.05 13.8,28.05 13.8,26.35 8.55,26.35 8.55,18.75 5.25,18.75 5.25,26.35 0,26.35"/>
<polygon id="0x59015ec663c0" class="l95d20" points="0,9.75 13.8,9.75 13.8,14.1 0,14.1"/>
<polygon id="0x59015f649430" class="l78d44" points="0,12.5 13.8,12.5 13.8,27.2 0,27.2"/>
<polygon id="0x59015f4d9110" class="l93d44" points="0,-1.9 13.8,-1.9 13.8,10.15 0,10.15"/>
<polygon id="0x59015fbbb570" class="l64d20" points="-1.9,13.05 15.7,13.05 15.7,29.1 -1.9,29.1"/>
<polygon id="0x59015fbbb5e0" class="l94d20" points="0,14.2 13.8,14.2 13.8,29.1 0,29.1"/>
<polygon id="0x59015f92bd20" class="l81d4" points="0,0 13.8,0 13.8,27.2 0,27.2"/>
<polygon id="0x59015f931320" class="l67d44" points="1.45,-0.85 3.15,-0.85 3.15,0.85 1.45,0.85"/>
<polygon id="0x59015ed31fc0" class="l67d44" points="1.45,26.35 3.15,26.35 3.15,28.05 1.45,28.05"/>
<polygon id="0x59015f8d0570" class="l67d44" points="6.05,-0.85 7.75,-0.85 7.75,0.85 6.05,0.85"/>
<polygon id="0x59015f88bc70" class="l67d44" points="6.05,26.35 7.75,26.35 7.75,28.05 6.05,28.05"/>
<polygon id="0x59015f88bce0" class="l67d44" points="10.65,-0.85 12.35,-0.85 12.35,0.85 10.65,0.85"/>
<polygon id="0x59015f894870" class="l67d44" points="10.65,26.35 12.35,26.35 12.35,28.05 10.65,28.05"/>
<polygon id="0x59015f69ad90" class="l67d16" points="1.45,4.25 3.15,4.25 3.15,5.95 1.45,5.95"/>
<polygon id="0x59015f755850" class="l67d16" points="1.45,17.85 3.15,17.85 3.15,19.55 1.45,19.55"/>
<polygon id="0x59015f7558c0" class="l67d16" points="1.45,21.25 3.15,21.25 3.15,22.95 1.45,22.95"/>
<polygon id="0x59015f68a420" class="l67d16" points="10.65,11.05 12.35,11.05 12.35,12.75 10.65,12.75"/>
<polygon id="0x59015f5fce80" class="l65d20" points="1.35,2.35 12.45,2.35 12.45,7.55 1.35,7.55"/>
<polygon id="0x59015f5d6db0" class="l65d20" points="1.35,16.95 12.45,16.95 12.45,24.85 1.35,24.85"/>
<polygon id="0x59015f5d6e20" class="l66d44" points="1.75,4.45 3.45,4.45 3.45,6.15 1.75,6.15"/>
<polygon id="0x59015f599760" class="l66d44" points="1.75,18.1 3.45,18.1 3.45,19.8 1.75,19.8"/>
<polygon id="0x59015f55f470" class="l66d44" points="1.75,22.15 3.45,22.15 3.45,23.85 1.75,23.85"/>
<polygon id="0x59015f4df350" class="l66d44" points="4.25,11.4 5.95,11.4 5.95,13.1 4.25,13.1"/>
<polygon id="0x59015f4df3c0" class="l66d44" points="6.05,2.95 7.75,2.95 7.75,4.65 6.05,4.65"/>
<polygon id="0x59015f50c9b0" class="l66d44" points="6.05,18.75 7.75,18.75 7.75,20.45 6.05,20.45"/>
<polygon id="0x59015f4d4320" class="l66d44" points="6.05,22.15 7.75,22.15 7.75,23.85 6.05,23.85"/>
<polygon id="0x59015f4e52e0" class="l66d44" points="10.25,10.75 11.95,10.75 11.95,12.45 10.25,12.45"/>
<polygon id="0x59015f4e5350" class="l66d44" points="10.35,3.6 12.05,3.6 12.05,5.3 10.35,5.3"/>
<polygon id="0x59015ec53c40" class="l66d44" points="10.35,18.75 12.05,18.75 12.05,20.45 10.35,20.45"/>
<polygon id="0x59015f483fb0" class="l66d44" points="10.35,22.15 12.05,22.15 12.05,23.85 10.35,23.85"/>
<polygon id="0x59015f393040" class="l66d20" points="3.75,13.9 3.95,13.9 3.95,26.15 5.45,26.15 5.45,13.9 6.45,13.9 6.45,10.6 5.45,10.6 5.45,1.05 3.95,1.05 3.95,10.6 3.75,10.6"/>
<polygon id="0x59015f3930b0" class="l66d20" points="12.45,13.25 10.15,13.25 10.15,16.2 9.85,16.2 9.85,26.15 8.35,26.15 8.35,15 8.65,15 8.65,9.5 8.35,9.5 8.35,1.05 9.85,1.05 9.85,8.3 10.15,8.3 10.15,9.95 12.45,9.95"/>
<polygon id="0x59015fbff330" class="l68d20" points="13.8,-2.4 13.8,2.4 0,2.4 0,-2.4"/>
<polygon id="0x59015fbff330" class="l68d20" points="13.8,24.8 13.8,29.6 0,29.6 0,24.8"/>
<text id="0x59015ef37fc0" class="l68t5" text-anchor="middle" dominant-baseline="central" transform="translate(11.5 0) rotate(180) scale(1 -1) scale(0.1) scale(1 -1)">VGND</text>
<text id="0x59015ef38050" class="l68t5" text-anchor="middle" dominant-baseline="central" transform="translate(11.5 27.2) rotate(180) scale(1 -1) scale(0.1) scale(1 -1)">VPWR</text>
<text id="0x59015eee0660" class="l67t5" text-anchor="middle" dominant-baseline="central" transform="translate(2.3 5.1) rotate(180) scale(1 -1) scale(0.1) scale(1 -1)">X</text>
<text id="0x59015eee06f0" class="l67t5" text-anchor="middle" dominant-baseline="central" transform="translate(2.3 18.7) rotate(180) scale(1 -1) scale(0.1) scale(1 -1)">X</text>
<text id="0x59015eeb7000" class="l67t5" text-anchor="middle" dominant-baseline="central" transform="translate(2.3 22.1) rotate(180) scale(1 -1) scale(0.1) scale(1 -1)">X</text>
<text id="0x59015eeb7090" class="l67t5" text-anchor="middle" dominant-baseline="central" transform="translate(11.5 11.9) rotate(180) scale(1 -1) scale(0.1) scale(1 -1)">A</text>
<text id="0x59015ee65cb0" class="l64t5" text-anchor="middle" dominant-baseline="central" transform="translate(11.5 27.2) rotate(180) scale(1 -1) scale(0.1) scale(1 -1)">VPB</text>
<text id="0x59015ee65d40" class="l64t59" text-anchor="middle" dominant-baseline="central" transform="translate(11.5 0) rotate(180) scale(1 -1) scale(0.1) scale(1 -1)">VNB</text>
<text id="0x59015ee31800" class="l83t44" text-anchor="start" dominant-baseline="text-before-edge" transform="translate(0 0) rotate(90) scale(0.1) scale(1 -1)">clkbuf_1</text>
</g>
<g id="sky130_fd_sc_hd__inv_2">
<polygon id="0x59015f654e40" class="l236d0" points="0,0 13.8,0 13.8,27.2 0,27.2"/>
<polygon id="0x59015f954280" class="l64d16" points="1.45,26.35 3.15,26.35 3.15,28.05 1.45,28.05"/>
<polygon id="0x59015f92a600" class="l122d16" points="1.45,-0.85 3.15,-0.85 3.15,0.85 1.45,0.85"/>
<polygon id="0x59015f55db50" class="l68d16" points="1.45,26.35 3.15,26.35 3.15,28.05 1.45,28.05"/>
<polygon id="0x59015f133870" class="l68d16" points="1.45,-0.85 3.15,-0.85 3.15,0.85 1.45,0.85"/>
<polygon id="0x59015f77e200" class="l67d20" points="13.8,28.05 0,28.05 0,26.35 1.25,26.35 1.25,14.95 3.55,14.95 3.55,26.35 10.25,26.35 10.25,14.95 12.35,14.95 12.35,26.35 13.8,26.35"/>
<polygon id="0x59015f77e270" class="l67d20" points="8.55,24.65 5.25,24.65 5.25,14.85 6.05,14.85 6.05,8.85 5.25,8.85 5.25,2.55 8.55,2.55"/>
<polygon id="0x59015f222b20" class="l67d20" points="1.05,10.75 4.35,10.75 4.35,13.25 1.05,13.25"/>
<polygon id="0x59015fc0f870" class="l67d20" points="13.8,0.85 12.35,0.85 12.35,9.05 10.25,9.05 10.25,0.85 3.55,0.85 3.55,9.05 1.25,9.05 1.25,0.85 0,0.85 0,-0.85 13.8,-0.85"/>
<polygon id="0x59015f621c10" class="l66d44" points="10.25,2.95 11.95,2.95 11.95,4.65 10.25,4.65"/>
<polygon id="0x59015f6f8fa0" class="l66d44" points="10.25,6.55 11.95,6.55 11.95,8.25 10.25,8.25"/>
<polygon id="0x59015f719940" class="l66d44" points="10.25,15.75 11.95,15.75 11.95,17.45 10.25,17.45"/>
<polygon id="0x59015f725850" class="l66d44" points="10.25,19.15 11.95,19.15 11.95,20.85 10.25,20.85"/>
<polygon id="0x59015ee8c800" class="l66d44" points="10.25,22.55 11.95,22.55 11.95,24.25 10.25,24.25"/>
<polygon id="0x59015f146c40" class="l66d44" points="6.05,2.95 7.75,2.95 7.75,4.65 6.05,4.65"/>
<polygon id="0x59015f883640" class="l66d44" points="6.05,6.55 7.75,6.55 7.75,8.25 6.05,8.25"/>
<polygon id="0x59015f8bfaf0" class="l66d44" points="6.05,15.75 7.75,15.75 7.75,17.45 6.05,17.45"/>
<polygon id="0x59015fc0f8e0" class="l66d44" points="6.05,19.15 7.75,19.15 7.75,20.85 6.05,20.85"/>
<polygon id="0x59015f7626a0" class="l66d44" points="6.05,22.55 7.75,22.55 7.75,24.25 6.05,24.25"/>
<polygon id="0x59015f7aa3e0" class="l66d44" points="1.85,22.55 3.55,22.55 3.55,24.25 1.85,24.25"/>
<polygon id="0x59015fa8e3b0" class="l66d44" points="1.85,2.95 3.55,2.95 3.55,4.65 1.85,4.65"/>
<polygon id="0x59015fc14600" class="l66d44" points="1.85,6.55 3.55,6.55 3.55,8.25 1.85,8.25"/>
<polygon id="0x59015fbd02c0" class="l66d44" points="1.85,10.75 3.55,10.75 3.55,12.45 1.85,12.45"/>
<polygon id="0x59015f718650" class="l66d44" points="1.85,15.75 3.55,15.75 3.55,17.45 1.85,17.45"/>
<polygon id="0x59015f0a0c60" class="l66d44" points="1.85,19.15 3.55,19.15 3.55,20.85 1.85,20.85"/>
<polygon id="0x59015f2323f0" class="l66d20" points="9.75,26.15 8.25,26.15 8.25,13.25 5.55,13.25 5.55,26.15 4.05,26.15 4.05,13.25 1.05,13.25 1.05,9.95 4.05,9.95 4.05,1.05 5.55,1.05 5.55,9.95 8.25,9.95 8.25,1.05 9.75,1.05"/>
<polygon id="0x59015fa87ec0" class="l65d20" points="1.45,2.35 12.35,2.35 12.35,8.85 1.45,8.85"/>
<polygon id="0x59015f927de0" class="l65d20" points="1.45,14.85 12.35,14.85 12.35,24.85 1.45,24.85"/>
<polygon id="0x59015fa67620" class="l67d16" points="6.05,7.65 7.75,7.65 7.75,9.35 6.05,9.35"/>
<polygon id="0x59015f977bd0" class="l67d16" points="1.45,11.05 3.15,11.05 3.15,12.75 1.45,12.75"/>
<polygon id="0x59015f979e00" class="l67d16" points="6.05,14.45 7.75,14.45 7.75,16.15 6.05,16.15"/>
<polygon id="0x59015f921b70" class="l67d16" points="6.05,11.05 7.75,11.05 7.75,12.75 6.05,12.75"/>
<polygon id="0x59015f8877d0" class="l67d44" points="10.65,-0.85 12.35,-0.85 12.35,0.85 10.65,0.85"/>
<polygon id="0x59015f6be540" class="l67d44" points="1.45,26.35 3.15,26.35 3.15,28.05 1.45,28.05"/>
<polygon id="0x59015f87ec20" class="l67d44" points="1.45,-0.85 3.15,-0.85 3.15,0.85 1.45,0.85"/>
<polygon id="0x59015f87dba0" class="l67d44" points="6.05,26.35 7.75,26.35 7.75,28.05 6.05,28.05"/>
<polygon id="0x59015f858500" class="l67d44" points="6.05,-0.85 7.75,-0.85 7.75,0.85 6.05,0.85"/>
<polygon id="0x59015f7f3c70" class="l67d44" points="10.65,26.35 12.35,26.35 12.35,28.05 10.65,28.05"/>
<polygon id="0x59015f5af000" class="l81d4" points="0,0 13.8,0 13.8,27.2 0,27.2"/>
<polygon id="0x59015f21d810" class="l94d20" points="0,13.55 13.8,13.55 13.8,29.1 0,29.1"/>
<polygon id="0x59015ef1ce60" class="l64d20" points="-1.9,13.05 15.7,13.05 15.7,29.1 -1.9,29.1"/>
<polygon id="0x59015f952e20" class="l93d44" points="0,-1.9 13.8,-1.9 13.8,10.15 0,10.15"/>
<polygon id="0x59015f5950e0" class="l78d44" points="0,12.5 13.8,12.5 13.8,27.2 0,27.2"/>
<polygon id="0x59015f4a6e90" class="l95d20" points="0,9.75 13.8,9.75 13.8,13.45 0,13.45"/>
<polygon id="0x59015fbff330" class="l68d20" points="0,29.6 0,24.8 13.8,24.8 13.8,29.6"/>
<polygon id="0x59015fbff330" class="l68d20" points="0,2.4 0,-2.4 13.8,-2.4 13.8,2.4"/>
<text id="0x59015f621b80" class="l67t5" text-anchor="middle" dominant-baseline="central" transform="translate(2.3 11.9) scale(0.17) scale(1 -1)">A</text>
<text id="0x59015f6f8f10" class="l67t5" text-anchor="middle" dominant-baseline="central" transform="translate(6.9 8.5) scale(0.17) scale(1 -1)">Y</text>
<text id="0x59015f7198b0" class="l67t5" text-anchor="middle" dominant-baseline="central" transform="translate(6.9 15.3) scale(0.17) scale(1 -1)">Y</text>
<text id="0x59015f741e20" class="l67t5" text-anchor="middle" dominant-baseline="central" transform="translate(6.9 11.9) scale(0.17) scale(1 -1)">Y</text>
<text id="0x59015f7257c0" class="l64t5" text-anchor="middle" dominant-baseline="central" transform="translate(2.3 27.2) scale(0.1) scale(1 -1)">VPB</text>
<text id="0x59015ee89ca0" class="l64t59" text-anchor="middle" dominant-baseline="central" transform="translate(2.3 0) scale(0.1) scale(1 -1)">VNB</text>
<text id="0x59015ee8c770" class="l68t5" text-anchor="middle" dominant-baseline="central" transform="translate(2.3 27.2) scale(0.1) scale(1 -1)">VPWR</text>
<text id="0x59015fa8e970" class="l68t5" text-anchor="middle" dominant-baseline="central" transform="translate(2.3 0) scale(0.1) scale(1 -1)">VGND</text>
<text id="0x59015f099420" class="l83t44" text-anchor="start" dominant-baseline="text-before-edge" transform="translate(0 0) rotate(90) scale(0.1) scale(1 -1)">inv_2</text>
</g>
<g id="sky130_fd_sc_hd__fill_1">
<polygon id="0x59015f91d300" class="l64d16" points="1.55,26.7 2.55,26.7 2.55,27.55 1.55,27.55"/>
<polygon id="0x59015f911190" class="l122d16" points="1.4,-0.55 2.6,-0.55 2.6,0.55 1.4,0.55"/>
<polygon id="0x59015f7ab990" class="l68d16" points="1.1,26.35 2.9,26.35 2.9,27.85 1.1,27.85"/>
<polygon id="0x59015f735df0" class="l68d16" points="1.1,-0.65 2.9,-0.65 2.9,0.8 1.1,0.8"/>
<polygon id="0x59015f656f60" class="l81d4" points="0,0 4.6,0 4.6,27.2 0,27.2"/>
<polygon id="0x59015fa64f60" class="l78d44" points="0,12.5 4.6,12.5 4.6,27.2 0,27.2"/>
<polygon id="0x59015f8e8f70" class="l93d44" points="0,-1.9 4.6,-1.9 4.6,10.15 0,10.15"/>
<polygon id="0x59015f6563c0" class="l64d20" points="-1.9,13.05 6.5,13.05 6.5,29.1 -1.9,29.1"/>
<polygon id="0x59015f689a50" class="l94d20" points="0,13.55 4.6,13.55 4.6,29.1 0,29.1"/>
<polygon id="0x59015f4fab50" class="l67d44" points="1.45,26.35 3.15,26.35 3.15,28.05 1.45,28.05"/>
<polygon id="0x59015f6d7ba0" class="l67d44" points="1.45,-0.85 3.15,-0.85 3.15,0.85 1.45,0.85"/>
<polygon id="0x59015fbff330" class="l67d20" points="0,0.85 0,-0.85 4.6,-0.85 4.6,0.85"/>
<polygon id="0x59015fbff330" class="l67d20" points="0,28.05 0,26.35 4.6,26.35 4.6,28.05"/>
<polygon id="0x59015fbff330" class="l68d20" points="0,29.6 0,24.8 4.6,24.8 4.6,29.6"/>
<polygon id="0x59015fbff330" class="l68d20" points="0,2.4 0,-2.4 4.6,-2.4 4.6,2.4"/>
<text id="0x59015fa93590" class="l68t5" text-anchor="middle" dominant-baseline="central" transform="translate(2.05 27.2) scale(0.125) scale(1 -1)">VPWR</text>
<text id="0x59015f8b92c0" class="l68t5" text-anchor="middle" dominant-baseline="central" transform="translate(2.05 0) scale(0.125) scale(1 -1)">VGND</text>
<text id="0x59015f69b510" class="l64t5" text-anchor="middle" dominant-baseline="central" transform="translate(2.3 27.2) scale(0.1) scale(1 -1)">VPB</text>
<text id="0x59015f8d7f70" class="l64t59" text-anchor="middle" dominant-baseline="central" transform="translate(2.3 0) scale(0.1) scale(1 -1)">VNB</text>
<text id="0x59015f728440" class="l83t44" text-anchor="start" dominant-baseline="text-before-edge" transform="translate(0 0) rotate(90) scale(0.1) scale(1 -1)">fill_1</text>
</g>
</defs>
<rect x="-28.56" y="-599.76" width="402.12" height="628.32" fill="#222222" stroke="none"/>
<g id="inverter" transform="scale(1 -1)">
<polygon id="0x59015f9993a0" class="l235d4" points="0,0 345,0 345,571.2 0,571.2"/>
<polygon id="0x59015f8d8f20" class="l67d20" points="272.85,313.65 274.55,313.65 274.55,315.35 272.85,315.35"/>
<polygon id="0x59015f89e8f0" class="l67d20" points="263.65,303.45 265.35,303.45 265.35,305.15 263.65,305.15"/>
<polygon id="0x59015f617a30" class="l67d20" points="268.25,279.65 269.95,279.65 269.95,281.35 268.25,281.35"/>
<polygon id="0x59015f323820" class="l67d20" points="263.65,276.25 265.35,276.25 265.35,277.95 263.65,277.95"/>
<polygon id="0x59015f1980e0" class="l67d20" points="268.25,266.05 269.95,266.05 269.95,267.75 268.25,267.75"/>
<polygon id="0x59015ec5e8e0" class="l67d20" points="263.65,259.25 265.35,259.25 265.35,260.95 263.65,260.95"/>
<polygon id="0x59015f092710" class="l67d44" points="272.85,313.65 274.55,313.65 274.55,315.35 272.85,315.35"/>
<polygon id="0x59015f3418f0" class="l67d44" points="263.65,303.45 265.35,303.45 265.35,305.15 263.65,305.15"/>
<polygon id="0x59015f28eac0" class="l67d44" points="268.25,279.65 269.95,279.65 269.95,281.35 268.25,281.35"/>
<polygon id="0x59015f28eb90" class="l67d44" points="263.65,276.25 265.35,276.25 265.35,277.95 263.65,277.95"/>
<polygon id="0x59015f24a8c0" class="l67d44" points="268.25,266.05 269.95,266.05 269.95,267.75 268.25,267.75"/>
<polygon id="0x59015f24a990" class="l67d44" points="263.65,259.25 265.35,259.25 265.35,260.95 263.65,260.95"/>
<polygon id="0x59015f24b050" class="l68d20" points="55.2,460 289.8,460 289.8,464.8 55.2,464.8"/>
<polygon id="0x59015f24b120" class="l68d20" points="55.2,432.8 289.8,432.8 289.8,437.6 55.2,437.6"/>
<polygon id="0x59015f09dc60" class="l68d20" points="55.2,405.6 289.8,405.6 289.8,410.4 55.2,410.4"/>
<polygon id="0x59015f09dd30" class="l68d20" points="55.2,378.4 289.8,378.4 289.8,383.2 55.2,383.2"/>
<polygon id="0x59015f1b5fb0" class="l68d20" points="55.2,351.2 289.8,351.2 289.8,356 55.2,356"/>
<polygon id="0x59015f15d480" class="l68d20" points="55.2,324 289.8,324 289.8,328.8 55.2,328.8"/>
<polygon id="0x59015f15d550" class="l68d20" points="272.1,313.2 275.3,313.2 275.3,315.8 272.1,315.8"/>
<polygon id="0x59015f127ea0" class="l68d20" points="262.9,303 266.1,303 266.1,305.6 262.9,305.6"/>
<polygon id="0x59015f127f70" class="l68d20" points="55.2,296.8 289.8,296.8 289.8,301.6 55.2,301.6"/>
<polygon id="0x59015f0f45e0" class="l68d20" points="267.5,279.2 270.7,279.2 270.7,281.8 267.5,281.8"/>
<polygon id="0x59015f0f46b0" class="l68d20" points="263.05,277.8 265.95,277.8 265.95,278.25 263.05,278.25"/>
<polygon id="0x59015f0fd510" class="l68d20" points="272.1,277.8 275.3,277.8 275.3,278.4 272.1,278.4"/>
<polygon id="0x59015f0fd5e0" class="l68d20" points="263.05,276.4 275.3,276.4 275.3,277.8 263.05,277.8"/>
<polygon id="0x59015f9c4b30" class="l68d20" points="263.05,275.95 265.95,275.95 265.95,276.4 263.05,276.4"/>
<polygon id="0x59015f9c4c00" class="l68d20" points="272.1,275.8 275.3,275.8 275.3,276.4 272.1,276.4"/>
<polygon id="0x59015f82bae0" class="l68d20" points="55.2,269.6 289.8,269.6 289.8,274.4 55.2,274.4"/>
<polygon id="0x59015f82bbb0" class="l68d20" points="262.9,265.6 266.1,265.6 266.1,268.2 262.9,268.2"/>
<polygon id="0x59015ec98fe0" class="l68d20" points="267.5,265.6 270.7,265.6 270.7,268.2 267.5,268.2"/>
<polygon id="0x59015ec990b0" class="l68d20" points="263.8,261.25 265.2,261.25 265.2,265.6 263.8,265.6"/>
<polygon id="0x59015efa9d30" class="l68d20" points="263.05,258.95 265.95,258.95 265.95,261.25 263.05,261.25"/>
<polygon id="0x59015f1b5f00" class="l68d20" points="55.2,242.4 289.8,242.4 289.8,247.2 55.2,247.2"/>
<polygon id="0x59015efa9e00" class="l68d20" points="55.2,215.2 289.8,215.2 289.8,220 55.2,220"/>
<polygon id="0x59015f08d1d0" class="l68d20" points="55.2,188 289.8,188 289.8,192.8 55.2,192.8"/>
<polygon id="0x59015f08d2a0" class="l68d20" points="55.2,160.8 289.8,160.8 289.8,165.6 55.2,165.6"/>
<polygon id="0x59015f1e4c10" class="l68d20" points="55.2,133.6 289.8,133.6 289.8,138.4 55.2,138.4"/>
<polygon id="0x59015f1e4ce0" class="l68d20" points="55.2,106.4 289.8,106.4 289.8,111.2 55.2,111.2"/>
<polygon id="0x59015ef75040" class="l68d44" points="98.05,461.65 99.55,461.65 99.55,463.15 98.05,463.15"/>
<polygon id="0x59015ef75110" class="l68d44" points="101.25,461.65 102.75,461.65 102.75,463.15 101.25,463.15"/>
<polygon id="0x59015f0a7f90" class="l68d44" points="104.45,461.65 105.95,461.65 105.95,463.15 104.45,463.15"/>
<polygon id="0x59015f0a8060" class="l68d44" points="107.65,461.65 109.15,461.65 109.15,463.15 107.65,463.15"/>
<polygon id="0x59015efc5e80" class="l68d44" points="110.85,461.65 112.35,461.65 112.35,463.15 110.85,463.15"/>
<polygon id="0x59015efc5f50" class="l68d44" points="131.05,434.45 132.55,434.45 132.55,435.95 131.05,435.95"/>
<polygon id="0x59015f026790" class="l68d44" points="134.25,434.45 135.75,434.45 135.75,435.95 134.25,435.95"/>
<polygon id="0x59015f026860" class="l68d44" points="137.45,434.45 138.95,434.45 138.95,435.95 137.45,435.95"/>
<polygon id="0x59015effbaa0" class="l68d44" points="140.65,434.45 142.15,434.45 142.15,435.95 140.65,435.95"/>
<polygon id="0x59015effbb70" class="l68d44" points="143.85,434.45 145.35,434.45 145.35,435.95 143.85,435.95"/>
<polygon id="0x59015ef94c70" class="l68d44" points="98.05,407.25 99.55,407.25 99.55,408.75 98.05,408.75"/>
<polygon id="0x59015ef94d40" class="l68d44" points="101.25,407.25 102.75,407.25 102.75,408.75 101.25,408.75"/>
<polygon id="0x59015ed37f00" class="l68d44" points="104.45,407.25 105.95,407.25 105.95,408.75 104.45,408.75"/>
<polygon id="0x59015ed37fd0" class="l68d44" points="107.65,407.25 109.15,407.25 109.15,408.75 107.65,408.75"/>
<polygon id="0x59015ee8d8a0" class="l68d44" points="110.85,407.25 112.35,407.25 112.35,408.75 110.85,408.75"/>
<polygon id="0x59015ee8d970" class="l68d44" points="131.05,380.05 132.55,380.05 132.55,381.55 131.05,381.55"/>
<polygon id="0x59015ee50bb0" class="l68d44" points="134.25,380.05 135.75,380.05 135.75,381.55 134.25,381.55"/>
<polygon id="0x59015ee50c80" class="l68d44" points="137.45,380.05 138.95,380.05 138.95,381.55 137.45,381.55"/>
<polygon id="0x59015ee075e0" class="l68d44" points="140.65,380.05 142.15,380.05 142.15,381.55 140.65,381.55"/>
<polygon id="0x59015ee076b0" class="l68d44" points="143.85,380.05 145.35,380.05 145.35,381.55 143.85,381.55"/>
<polygon id="0x59015f8a1f20" class="l68d44" points="98.05,352.85 99.55,352.85 99.55,354.35 98.05,354.35"/>
<polygon id="0x59015f8a1ff0" class="l68d44" points="101.25,352.85 102.75,352.85 102.75,354.35 101.25,354.35"/>
<polygon id="0x59015f2a95f0" class="l68d44" points="104.45,352.85 105.95,352.85 105.95,354.35 104.45,354.35"/>
<polygon id="0x59015f2a96c0" class="l68d44" points="107.65,352.85 109.15,352.85 109.15,354.35 107.65,354.35"/>
<polygon id="0x59015f12ae90" class="l68d44" points="110.85,352.85 112.35,352.85 112.35,354.35 110.85,354.35"/>
<polygon id="0x59015f12af60" class="l68d44" points="131.05,325.65 132.55,325.65 132.55,327.15 131.05,327.15"/>
<polygon id="0x59015ee937b0" class="l68d44" points="134.25,325.65 135.75,325.65 135.75,327.15 134.25,327.15"/>
<polygon id="0x59015ee93880" class="l68d44" points="137.45,325.65 138.95,325.65 138.95,327.15 137.45,327.15"/>
<polygon id="0x59015f9ec3c0" class="l68d44" points="140.65,325.65 142.15,325.65 142.15,327.15 140.65,327.15"/>
<polygon id="0x59015f9ec490" class="l68d44" points="143.85,325.65 145.35,325.65 145.35,327.15 143.85,327.15"/>
<polygon id="0x59015f9d50e0" class="l68d44" points="272.95,313.75 274.45,313.75 274.45,315.25 272.95,315.25"/>
<polygon id="0x59015f9d51b0" class="l68d44" points="263.75,303.55 265.25,303.55 265.25,305.05 263.75,305.05"/>
<polygon id="0x59015f8d7130" class="l68d44" points="98.05,298.45 99.55,298.45 99.55,299.95 98.05,299.95"/>
<polygon id="0x59015f8d7200" class="l68d44" points="101.25,298.45 102.75,298.45 102.75,299.95 101.25,299.95"/>
<polygon id="0x59015f8882a0" class="l68d44" points="104.45,298.45 105.95,298.45 105.95,299.95 104.45,299.95"/>
<polygon id="0x59015f888370" class="l68d44" points="107.65,298.45 109.15,298.45 109.15,299.95 107.65,299.95"/>
<polygon id="0x59015f696240" class="l68d44" points="110.85,298.45 112.35,298.45 112.35,299.95 110.85,299.95"/>
<polygon id="0x59015f696310" class="l68d44" points="268.35,279.75 269.85,279.75 269.85,281.25 268.35,281.25"/>
<polygon id="0x59015f80d460" class="l68d44" points="272.95,276.35 274.45,276.35 274.45,277.85 272.95,277.85"/>
<polygon id="0x59015f80d530" class="l68d44" points="131.05,271.25 132.55,271.25 132.55,272.75 131.05,272.75"/>
<polygon id="0x59015f7dee30" class="l68d44" points="134.25,271.25 135.75,271.25 135.75,272.75 134.25,272.75"/>
<polygon id="0x59015f7def00" class="l68d44" points="137.45,271.25 138.95,271.25 138.95,272.75 137.45,272.75"/>
<polygon id="0x59015f53ad60" class="l68d44" points="140.65,271.25 142.15,271.25 142.15,272.75 140.65,272.75"/>
<polygon id="0x59015f53ae30" class="l68d44" points="143.85,271.25 145.35,271.25 145.35,272.75 143.85,272.75"/>
<polygon id="0x59015f4c3040" class="l68d44" points="263.75,266.15 265.25,266.15 265.25,267.65 263.75,267.65"/>
<polygon id="0x59015f4c3110" class="l68d44" points="268.35,266.15 269.85,266.15 269.85,267.65 268.35,267.65"/>
<polygon id="0x59015f4ccb20" class="l68d44" points="98.05,244.05 99.55,244.05 99.55,245.55 98.05,245.55"/>
<polygon id="0x59015f4ccbf0" class="l68d44" points="101.25,244.05 102.75,244.05 102.75,245.55 101.25,245.55"/>
<polygon id="0x59015f3d9600" class="l68d44" points="104.45,244.05 105.95,244.05 105.95,245.55 104.45,245.55"/>
<polygon id="0x59015f3d96d0" class="l68d44" points="107.65,244.05 109.15,244.05 109.15,245.55 107.65,245.55"/>
<polygon id="0x59015f29bf00" class="l68d44" points="110.85,244.05 112.35,244.05 112.35,245.55 110.85,245.55"/>
<polygon id="0x59015f29bfd0" class="l68d44" points="131.05,216.85 132.55,216.85 132.55,218.35 131.05,218.35"/>
<polygon id="0x59015f1d4090" class="l68d44" points="134.25,216.85 135.75,216.85 135.75,218.35 134.25,218.35"/>
<polygon id="0x59015f1d4160" class="l68d44" points="137.45,216.85 138.95,216.85 138.95,218.35 137.45,218.35"/>
<polygon id="0x59015f18b1d0" class="l68d44" points="140.65,216.85 142.15,216.85 142.15,218.35 140.65,218.35"/>
<polygon id="0x59015f18b2a0" class="l68d44" points="143.85,216.85 145.35,216.85 145.35,218.35 143.85,218.35"/>
<polygon id="0x59015f14b2f0" class="l68d44" points="98.05,189.65 99.55,189.65 99.55,191.15 98.05,191.15"/>
<polygon id="0x59015f14b3c0" class="l68d44" points="101.25,189.65 102.75,189.65 102.75,191.15 101.25,191.15"/>
<polygon id="0x59015f034350" class="l68d44" points="104.45,189.65 105.95,189.65 105.95,191.15 104.45,191.15"/>
<polygon id="0x59015f034420" class="l68d44" points="107.65,189.65 109.15,189.65 109.15,191.15 107.65,191.15"/>
<polygon id="0x59015ef4cdd0" class="l68d44" points="110.85,189.65 112.35,189.65 112.35,191.15 110.85,191.15"/>
<polygon id="0x59015ef4cea0" class="l68d44" points="131.05,162.45 132.55,162.45 132.55,163.95 131.05,163.95"/>
<polygon id="0x59015edf45c0" class="l68d44" points="134.25,162.45 135.75,162.45 135.75,163.95 134.25,163.95"/>
<polygon id="0x59015edf4690" class="l68d44" points="137.45,162.45 138.95,162.45 138.95,163.95 137.45,163.95"/>
<polygon id="0x59015eda9890" class="l68d44" points="140.65,162.45 142.15,162.45 142.15,163.95 140.65,163.95"/>
<polygon id="0x59015eda9960" class="l68d44" points="143.85,162.45 145.35,162.45 145.35,163.95 143.85,163.95"/>
<polygon id="0x59015ed6a910" class="l68d44" points="98.05,135.25 99.55,135.25 99.55,136.75 98.05,136.75"/>
<polygon id="0x59015ed6a9e0" class="l68d44" points="101.25,135.25 102.75,135.25 102.75,136.75 101.25,136.75"/>
<polygon id="0x59015ed439b0" class="l68d44" points="104.45,135.25 105.95,135.25 105.95,136.75 104.45,136.75"/>
<polygon id="0x59015ed43a80" class="l68d44" points="107.65,135.25 109.15,135.25 109.15,136.75 107.65,136.75"/>
<polygon id="0x59015ec7cf70" class="l68d44" points="110.85,135.25 112.35,135.25 112.35,136.75 110.85,136.75"/>
<polygon id="0x59015ec7d040" class="l68d44" points="131.05,108.05 132.55,108.05 132.55,109.55 131.05,109.55"/>
<polygon id="0x59015fbc4c40" class="l68d44" points="134.25,108.05 135.75,108.05 135.75,109.55 134.25,109.55"/>
<polygon id="0x59015fbc4d10" class="l68d44" points="137.45,108.05 138.95,108.05 138.95,109.55 137.45,109.55"/>
<polygon id="0x59015f9e7670" class="l68d44" points="140.65,108.05 142.15,108.05 142.15,109.55 140.65,109.55"/>
<polygon id="0x59015f9e7740" class="l68d44" points="143.85,108.05 145.35,108.05 145.35,109.55 143.85,109.55"/>
<polygon id="0x59015f992400" class="l69d20" points="97.5,460.55 112.9,460.55 112.9,464.25 97.5,464.25"/>
<polygon id="0x59015f9924d0" class="l69d20" points="130.5,433.35 145.9,433.35 145.9,437.05 130.5,437.05"/>
<polygon id="0x59015f842df0" class="l69d20" points="97.5,406.15 112.9,406.15 112.9,409.85 97.5,409.85"/>
<polygon id="0x59015f842ec0" class="l69d20" points="130.5,378.95 145.9,378.95 145.9,382.65 130.5,382.65"/>
<polygon id="0x59015f748f90" class="l69d20" points="97.5,351.75 112.9,351.75 112.9,355.45 97.5,355.45"/>
<polygon id="0x59015f749060" class="l69d20" points="130.5,324.55 145.9,324.55 145.9,328.25 130.5,328.25"/>
<polygon id="0x59015f71b9a0" class="l69d20" points="272.4,312.9 275,312.9 275,316.1 272.4,316.1"/>
<polygon id="0x59015f71ba70" class="l69d20" points="273,311.25 274.4,311.25 274.4,312.9 273,312.9"/>
<polygon id="0x59015f6ed250" class="l69d20" points="272.3,307.55 275.1,307.55 275.1,311.25 272.3,311.25"/>
<polygon id="0x59015f6ed320" class="l69d20" points="263.2,302.7 265.8,302.7 265.8,305.9 263.2,305.9"/>
<polygon id="0x59015f687db0" class="l69d20" points="97.5,297.35 112.9,297.35 112.9,301.05 97.5,301.05"/>
<polygon id="0x59015f687e80" class="l69d20" points="130.5,270.15 145.9,270.15 145.9,273.85 130.5,273.85"/>
<polygon id="0x59015f64ecf0" class="l69d20" points="263.8,268.5 265.2,268.5 265.2,302.7 263.8,302.7"/>
<polygon id="0x59015f64edc0" class="l69d20" points="267.8,278.9 270.4,278.9 270.4,282.1 267.8,282.1"/>
<polygon id="0x59015f54b2e0" class="l69d20" points="268.4,268.5 269.8,268.5 269.8,278.9 268.4,278.9"/>
<polygon id="0x59015f54b3b0" class="l69d20" points="272.4,277.25 275,277.25 275,278.7 272.4,278.7"/>
<polygon id="0x59015f4ddcf0" class="l69d20" points="272.3,273.55 275.1,273.55 275.1,277.25 272.3,277.25"/>
<polygon id="0x59015f4dddc0" class="l69d20" points="263.2,265.3 265.8,265.3 265.8,268.5 263.2,268.5"/>
<polygon id="0x59015f366a30" class="l69d20" points="267.8,265.3 270.4,265.3 270.4,268.5 267.8,268.5"/>
<polygon id="0x59015f366b00" class="l69d20" points="97.5,242.95 112.9,242.95 112.9,246.65 97.5,246.65"/>
<polygon id="0x59015f0bff50" class="l69d20" points="130.5,215.75 145.9,215.75 145.9,219.45 130.5,219.45"/>
<polygon id="0x59015f0c0020" class="l69d20" points="97.5,188.55 112.9,188.55 112.9,192.25 97.5,192.25"/>
<polygon id="0x59015f19d990" class="l69d20" points="130.5,161.35 145.9,161.35 145.9,165.05 130.5,165.05"/>
<polygon id="0x59015f19da60" class="l69d20" points="97.5,134.15 112.9,134.15 112.9,137.85 97.5,137.85"/>
<polygon id="0x59015f160f00" class="l69d20" points="130.5,106.95 145.9,106.95 145.9,110.65 130.5,110.65"/>
<polygon id="0x59015f160fd0" class="l69d44" points="98.2,461.4 100.2,461.4 100.2,463.4 98.2,463.4"/>
<polygon id="0x59015f15dfc0" class="l69d44" points="102.2,461.4 104.2,461.4 104.2,463.4 102.2,463.4"/>
<polygon id="0x59015f15e090" class="l69d44" points="106.2,461.4 108.2,461.4 108.2,463.4 106.2,463.4"/>
<polygon id="0x59015f157a80" class="l69d44" points="110.2,461.4 112.2,461.4 112.2,463.4 110.2,463.4"/>
<polygon id="0x59015f157b50" class="l69d44" points="131.2,434.2 133.2,434.2 133.2,436.2 131.2,436.2"/>
<polygon id="0x59015ef7bec0" class="l69d44" points="135.2,434.2 137.2,434.2 137.2,436.2 135.2,436.2"/>
<polygon id="0x59015ef7bf90" class="l69d44" points="139.2,434.2 141.2,434.2 141.2,436.2 139.2,436.2"/>
<polygon id="0x59015ee52ab0" class="l69d44" points="143.2,434.2 145.2,434.2 145.2,436.2 143.2,436.2"/>
<polygon id="0x59015ee52b80" class="l69d44" points="98.2,407 100.2,407 100.2,409 98.2,409"/>
<polygon id="0x59015ee103c0" class="l69d44" points="102.2,407 104.2,407 104.2,409 102.2,409"/>
<polygon id="0x59015ee10490" class="l69d44" points="106.2,407 108.2,407 108.2,409 106.2,409"/>
<polygon id="0x59015edbb430" class="l69d44" points="110.2,407 112.2,407 112.2,409 110.2,409"/>
<polygon id="0x59015edbb500" class="l69d44" points="131.2,379.8 133.2,379.8 133.2,381.8 131.2,381.8"/>
<polygon id="0x59015ec0c950" class="l69d44" points="135.2,379.8 137.2,379.8 137.2,381.8 135.2,381.8"/>
<polygon id="0x59015ec0ca20" class="l69d44" points="139.2,379.8 141.2,379.8 141.2,381.8 139.2,381.8"/>
<polygon id="0x59015ebd0a60" class="l69d44" points="143.2,379.8 145.2,379.8 145.2,381.8 143.2,381.8"/>
<polygon id="0x59015ebd0b30" class="l69d44" points="98.2,352.6 100.2,352.6 100.2,354.6 98.2,354.6"/>
<polygon id="0x59015fbc0ec0" class="l69d44" points="102.2,352.6 104.2,352.6 104.2,354.6 102.2,354.6"/>
<polygon id="0x59015fbc0f90" class="l69d44" points="106.2,352.6 108.2,352.6 108.2,354.6 106.2,354.6"/>
<polygon id="0x59015f080dc0" class="l69d44" points="110.2,352.6 112.2,352.6 112.2,354.6 110.2,354.6"/>
<polygon id="0x59015f080e30" class="l69d44" points="131.2,325.4 133.2,325.4 133.2,327.4 131.2,327.4"/>
<polygon id="0x59015f080f00" class="l69d44" points="135.2,325.4 137.2,325.4 137.2,327.4 135.2,327.4"/>
<polygon id="0x59015f5e9e40" class="l69d44" points="139.2,325.4 141.2,325.4 141.2,327.4 139.2,327.4"/>
<polygon id="0x59015f5e9f10" class="l69d44" points="143.2,325.4 145.2,325.4 145.2,327.4 143.2,327.4"/>
<polygon id="0x59015f590c60" class="l69d44" points="272.7,308.4 274.7,308.4 274.7,310.4 272.7,310.4"/>
<polygon id="0x59015f590d30" class="l69d44" points="98.2,298.2 100.2,298.2 100.2,300.2 98.2,300.2"/>
<polygon id="0x59015f4cb530" class="l69d44" points="102.2,298.2 104.2,298.2 104.2,300.2 102.2,300.2"/>
<polygon id="0x59015f4cb5a0" class="l69d44" points="106.2,298.2 108.2,298.2 108.2,300.2 106.2,300.2"/>
<polygon id="0x59015f4cb670" class="l69d44" points="110.2,298.2 112.2,298.2 112.2,300.2 110.2,300.2"/>
<polygon id="0x59015ee9a760" class="l69d44" points="272.7,274.4 274.7,274.4 274.7,276.4 272.7,276.4"/>
<polygon id="0x59015ee9a830" class="l69d44" points="131.2,271 133.2,271 133.2,273 131.2,273"/>
<polygon id="0x59015f26dac0" class="l69d44" points="135.2,271 137.2,271 137.2,273 135.2,273"/>
<polygon id="0x59015f26db90" class="l69d44" points="139.2,271 141.2,271 141.2,273 139.2,273"/>
<polygon id="0x59015f26fb10" class="l69d44" points="143.2,271 145.2,271 145.2,273 143.2,273"/>
<polygon id="0x59015f26fb80" class="l69d44" points="98.2,243.8 100.2,243.8 100.2,245.8 98.2,245.8"/>
<polygon id="0x59015f26fc50" class="l69d44" points="102.2,243.8 104.2,243.8 104.2,245.8 102.2,245.8"/>
<polygon id="0x59015f2385b0" class="l69d44" points="106.2,243.8 108.2,243.8 108.2,245.8 106.2,245.8"/>
<polygon id="0x59015f238680" class="l69d44" points="110.2,243.8 112.2,243.8 112.2,245.8 110.2,245.8"/>
<polygon id="0x59015f1ff980" class="l69d44" points="131.2,216.6 133.2,216.6 133.2,218.6 131.2,218.6"/>
<polygon id="0x59015f1ffa50" class="l69d44" points="135.2,216.6 137.2,216.6 137.2,218.6 135.2,218.6"/>
<polygon id="0x59015f1689e0" class="l69d44" points="139.2,216.6 141.2,216.6 141.2,218.6 139.2,218.6"/>
<polygon id="0x59015f168a50" class="l69d44" points="143.2,216.6 145.2,216.6 145.2,218.6 143.2,218.6"/>
<polygon id="0x59015f168b20" class="l69d44" points="98.2,189.4 100.2,189.4 100.2,191.4 98.2,191.4"/>
<polygon id="0x59015f089390" class="l69d44" points="102.2,189.4 104.2,189.4 104.2,191.4 102.2,191.4"/>
<polygon id="0x59015f089460" class="l69d44" points="106.2,189.4 108.2,189.4 108.2,191.4 106.2,191.4"/>
<polygon id="0x59015ed34430" class="l69d44" points="110.2,189.4 112.2,189.4 112.2,191.4 110.2,191.4"/>
<polygon id="0x59015ed34500" class="l69d44" points="131.2,162.2 133.2,162.2 133.2,164.2 131.2,164.2"/>
<polygon id="0x59015ed195d0" class="l69d44" points="135.2,162.2 137.2,162.2 137.2,164.2 135.2,164.2"/>
<polygon id="0x59015ed19640" class="l69d44" points="139.2,162.2 141.2,162.2 141.2,164.2 139.2,164.2"/>
<polygon id="0x59015ed19710" class="l69d44" points="143.2,162.2 145.2,162.2 145.2,164.2 143.2,164.2"/>
<polygon id="0x59015ebd1420" class="l69d44" points="98.2,135 100.2,135 100.2,137 98.2,137"/>
<polygon id="0x59015ebd14f0" class="l69d44" points="102.2,135 104.2,135 104.2,137 102.2,137"/>
<polygon id="0x59015fc01590" class="l69d44" points="106.2,135 108.2,135 108.2,137 106.2,137"/>
<polygon id="0x59015fc01660" class="l69d44" points="110.2,135 112.2,135 112.2,137 110.2,137"/>
<polygon id="0x59015fc01730" class="l69d44" points="131.2,107.8 133.2,107.8 133.2,109.8 131.2,109.8"/>
<polygon id="0x59015fc01800" class="l69d44" points="135.2,107.8 137.2,107.8 137.2,109.8 135.2,109.8"/>
<polygon id="0x59015fc018d0" class="l69d44" points="139.2,107.8 141.2,107.8 141.2,109.8 139.2,109.8"/>
<polygon id="0x59015fc019a0" class="l69d44" points="143.2,107.8 145.2,107.8 145.2,109.8 143.2,109.8"/>
<polygon id="0x59015fc01a70" class="l70d20" points="97.3,460.75 113.1,460.75 113.1,464.05 97.3,464.05"/>
<polygon id="0x59015fc01b40" class="l70d20" points="130.3,433.55 146.1,433.55 146.1,436.85 130.3,436.85"/>
<polygon id="0x59015fc01c10" class="l70d20" points="97.3,406.35 113.1,406.35 113.1,409.65 97.3,409.65"/>
<polygon id="0x59015fc01ce0" class="l70d20" points="130.3,379.15 146.1,379.15 146.1,382.45 130.3,382.45"/>
<polygon id="0x59015fc01db0" class="l70d20" points="97.3,351.95 113.1,351.95 113.1,355.25 97.3,355.25"/>
<polygon id="0x59015fc01e80" class="l70d20" points="130.3,324.75 146.1,324.75 146.1,328.05 130.3,328.05"/>
<polygon id="0x59015fc01f50" class="l70d20" points="272.05,310.9 275.35,310.9 275.35,311.05 272.05,311.05"/>
<polygon id="0x59015fc02020" class="l70d20" points="305,310.9 345,310.9 345,312.4 305,312.4"/>
<polygon id="0x59015fc020f0" class="l70d20" points="272.05,307.9 345,307.9 345,310.9 272.05,310.9"/>
<polygon id="0x59015fbc88b0" class="l70d20" points="272.05,307.75 275.35,307.75 275.35,307.9 272.05,307.9"/>
<polygon id="0x59015fbc8980" class="l70d20" points="305,306.4 345,306.4 345,307.9 305,307.9"/>
<polygon id="0x59015fbc8a50" class="l70d20" points="97.3,297.55 113.1,297.55 113.1,300.85 97.3,300.85"/>
<polygon id="0x59015fbc8b20" class="l70d20" points="272.05,276.9 275.35,276.9 275.35,277.05 272.05,277.05"/>
<polygon id="0x59015fbc8bf0" class="l70d20" points="305,276.9 345,276.9 345,278.4 305,278.4"/>
<polygon id="0x59015fbc8cc0" class="l70d20" points="272.05,273.9 345,273.9 345,276.9 272.05,276.9"/>
<polygon id="0x59015fbc8d90" class="l70d20" points="272.05,273.75 275.35,273.75 275.35,273.9 272.05,273.9"/>
<polygon id="0x59015fbc8e60" class="l70d20" points="130.3,270.35 146.1,270.35 146.1,273.65 130.3,273.65"/>
<polygon id="0x59015fbc8f30" class="l70d20" points="305,272.4 345,272.4 345,273.9 305,273.9"/>
<polygon id="0x59015fbc9000" class="l70d20" points="97.3,243.15 113.1,243.15 113.1,246.45 97.3,246.45"/>
<polygon id="0x59015fbc90d0" class="l70d20" points="130.3,215.95 146.1,215.95 146.1,219.25 130.3,219.25"/>
<polygon id="0x59015fbc91a0" class="l70d20" points="97.3,188.75 113.1,188.75 113.1,192.05 97.3,192.05"/>
<polygon id="0x59015fbc9270" class="l70d20" points="130.3,161.55 146.1,161.55 146.1,164.85 130.3,164.85"/>
<polygon id="0x59015fbc9340" class="l70d20" points="97.3,134.35 113.1,134.35 113.1,137.65 97.3,137.65"/>
<polygon id="0x59015fbc9410" class="l70d20" points="130.3,107.15 146.1,107.15 146.1,110.45 130.3,110.45"/>
<polygon id="0x59015fbc94e0" class="l70d44" points="98.2,461.4 100.2,461.4 100.2,463.4 98.2,463.4"/>
<polygon id="0x59015fbc95b0" class="l70d44" points="102.2,461.4 104.2,461.4 104.2,463.4 102.2,463.4"/>
<polygon id="0x59015fbc9680" class="l70d44" points="106.2,461.4 108.2,461.4 108.2,463.4 106.2,463.4"/>
<polygon id="0x59015fbc9750" class="l70d44" points="110.2,461.4 112.2,461.4 112.2,463.4 110.2,463.4"/>
<polygon id="0x59015fbc9820" class="l70d44" points="131.2,434.2 133.2,434.2 133.2,436.2 131.2,436.2"/>
<polygon id="0x59015fbc98f0" class="l70d44" points="135.2,434.2 137.2,434.2 137.2,436.2 135.2,436.2"/>
<polygon id="0x59015fbc99c0" class="l70d44" points="139.2,434.2 141.2,434.2 141.2,436.2 139.2,436.2"/>
<polygon id="0x59015fbc9a90" class="l70d44" points="143.2,434.2 145.2,434.2 145.2,436.2 143.2,436.2"/>
<polygon id="0x59015fbc9b60" class="l70d44" points="98.2,407 100.2,407 100.2,409 98.2,409"/>
<polygon id="0x59015fbc9c30" class="l70d44" points="102.2,407 104.2,407 104.2,409 102.2,409"/>
<polygon id="0x59015fbc9d00" class="l70d44" points="106.2,407 108.2,407 108.2,409 106.2,409"/>
<polygon id="0x59015fbc9dd0" class="l70d44" points="110.2,407 112.2,407 112.2,409 110.2,409"/>
<polygon id="0x59015fbc9ea0" class="l70d44" points="131.2,379.8 133.2,379.8 133.2,381.8 131.2,381.8"/>
<polygon id="0x59015fbc9f70" class="l70d44" points="135.2,379.8 137.2,379.8 137.2,381.8 135.2,381.8"/>
<polygon id="0x59015fbca040" class="l70d44" points="139.2,379.8 141.2,379.8 141.2,381.8 139.2,381.8"/>
<polygon id="0x59015fbca110" class="l70d44" points="143.2,379.8 145.2,379.8 145.2,381.8 143.2,381.8"/>
<polygon id="0x59015fbca1e0" class="l70d44" points="98.2,352.6 100.2,352.6 100.2,354.6 98.2,354.6"/>
<polygon id="0x59015fbca2b0" class="l70d44" points="102.2,352.6 104.2,352.6 104.2,354.6 102.2,354.6"/>
<polygon id="0x59015fbca380" class="l70d44" points="106.2,352.6 108.2,352.6 108.2,354.6 106.2,354.6"/>
<polygon id="0x59015fbca450" class="l70d44" points="110.2,352.6 112.2,352.6 112.2,354.6 110.2,354.6"/>
<polygon id="0x59015fbca520" class="l70d44" points="131.2,325.4 133.2,325.4 133.2,327.4 131.2,327.4"/>
<polygon id="0x59015fbca5f0" class="l70d44" points="135.2,325.4 137.2,325.4 137.2,327.4 135.2,327.4"/>
<polygon id="0x59015fbca6c0" class="l70d44" points="139.2,325.4 141.2,325.4 141.2,327.4 139.2,327.4"/>
<polygon id="0x59015fbca790" class="l70d44" points="143.2,325.4 145.2,325.4 145.2,327.4 143.2,327.4"/>
<polygon id="0x59015fbca860" class="l70d44" points="98.2,298.2 100.2,298.2 100.2,300.2 98.2,300.2"/>
<polygon id="0x59015fbca930" class="l70d44" points="102.2,298.2 104.2,298.2 104.2,300.2 102.2,300.2"/>
<polygon id="0x59015fbcaa00" class="l70d44" points="106.2,298.2 108.2,298.2 108.2,300.2 106.2,300.2"/>
<polygon id="0x59015fbcaad0" class="l70d44" points="110.2,298.2 112.2,298.2 112.2,300.2 110.2,300.2"/>
<polygon id="0x59015fbcaba0" class="l70d44" points="131.2,271 133.2,271 133.2,273 131.2,273"/>
<polygon id="0x59015fbcac70" class="l70d44" points="135.2,271 137.2,271 137.2,273 135.2,273"/>
<polygon id="0x59015fbcad40" class="l70d44" points="139.2,271 141.2,271 141.2,273 139.2,273"/>
<polygon id="0x59015fbcae10" class="l70d44" points="143.2,271 145.2,271 145.2,273 143.2,273"/>
<polygon id="0x59015fbcaee0" class="l70d44" points="98.2,243.8 100.2,243.8 100.2,245.8 98.2,245.8"/>
<polygon id="0x59015fbcafb0" class="l70d44" points="102.2,243.8 104.2,243.8 104.2,245.8 102.2,245.8"/>
<polygon id="0x59015fbcb080" class="l70d44" points="106.2,243.8 108.2,243.8 108.2,245.8 106.2,245.8"/>
<polygon id="0x59015fc00de0" class="l70d44" points="110.2,243.8 112.2,243.8 112.2,245.8 110.2,245.8"/>
<polygon id="0x59015fc00eb0" class="l70d44" points="131.2,216.6 133.2,216.6 133.2,218.6 131.2,218.6"/>
<polygon id="0x59015fc00f80" class="l70d44" points="135.2,216.6 137.2,216.6 137.2,218.6 135.2,218.6"/>
<polygon id="0x59015fc01050" class="l70d44" points="139.2,216.6 141.2,216.6 141.2,218.6 139.2,218.6"/>
<polygon id="0x59015fc01120" class="l70d44" points="143.2,216.6 145.2,216.6 145.2,218.6 143.2,218.6"/>
<polygon id="0x59015fc011f0" class="l70d44" points="98.2,189.4 100.2,189.4 100.2,191.4 98.2,191.4"/>
<polygon id="0x59015fc012c0" class="l70d44" points="102.2,189.4 104.2,189.4 104.2,191.4 102.2,191.4"/>
<polygon id="0x59015fc01390" class="l70d44" points="106.2,189.4 108.2,189.4 108.2,191.4 106.2,191.4"/>
<polygon id="0x59015fc01460" class="l70d44" points="110.2,189.4 112.2,189.4 112.2,191.4 110.2,191.4"/>
<polygon id="0x59015fbcb0f0" class="l70d44" points="131.2,162.2 133.2,162.2 133.2,164.2 131.2,164.2"/>
<polygon id="0x59015fbcb160" class="l70d44" points="135.2,162.2 137.2,162.2 137.2,164.2 135.2,164.2"/>
<polygon id="0x59015fbcb230" class="l70d44" points="139.2,162.2 141.2,162.2 141.2,164.2 139.2,164.2"/>
<polygon id="0x59015fbcb300" class="l70d44" points="143.2,162.2 145.2,162.2 145.2,164.2 143.2,164.2"/>
<polygon id="0x59015fbcb3d0" class="l70d44" points="98.2,135 100.2,135 100.2,137 98.2,137"/>
<polygon id="0x59015fbcb4a0" class="l70d44" points="102.2,135 104.2,135 104.2,137 102.2,137"/>
<polygon id="0x59015fbcb570" class="l70d44" points="106.2,135 108.2,135 108.2,137 106.2,137"/>
<polygon id="0x59015fbcb640" class="l70d44" points="110.2,135 112.2,135 112.2,137 110.2,137"/>
<polygon id="0x59015fbcb710" class="l70d44" points="131.2,107.8 133.2,107.8 133.2,109.8 131.2,109.8"/>
<polygon id="0x59015fbcb7e0" class="l70d44" points="135.2,107.8 137.2,107.8 137.2,109.8 135.2,109.8"/>
<polygon id="0x59015fbcb8b0" class="l70d44" points="139.2,107.8 141.2,107.8 141.2,109.8 139.2,109.8"/>
<polygon id="0x59015fbcb980" class="l70d44" points="143.2,107.8 145.2,107.8 145.2,109.8 143.2,109.8"/>
<polygon id="0x59015fbcba50" class="l71d20" points="97.2,106.4 113.2,106.4 113.2,464.8 97.2,464.8"/>
<polygon id="0x59015fbcbb20" class="l71d20" points="130.2,106.4 146.2,106.4 146.2,464.8 130.2,464.8"/>
<polygon id="0x59015fc0bc60" class="l71d16" points="130.2,106.4 146.2,106.4 146.2,464.8 130.2,464.8"/>
<polygon id="0x59015fc0bdc0" class="l71d16" points="97.2,106.4 113.2,106.4 113.2,464.8 97.2,464.8"/>
<polygon id="0x59015fc0bfb0" class="l70d16" points="305,306.4 345,306.4 345,312.4 305,312.4"/>
<polygon id="0x59015fc0c110" class="l70d16" points="305,272.4 345,272.4 345,278.4 305,278.4"/>
<use transform="translate(69 108.8)" xlink:href="#sky130_ef_sc_hd__decap_12"/>
<use transform="translate(69 163.2) scale(1 -1)" xlink:href="#sky130_ef_sc_hd__decap_12"/>
<use transform="translate(55.2 108.8)" xlink:href="#sky130_fd_sc_hd__decap_3"/>
<use transform="translate(55.2 163.2) scale(1 -1)" xlink:href="#sky130_fd_sc_hd__decap_3"/>
<use transform="translate(124.2 108.8)" xlink:href="#sky130_ef_sc_hd__decap_12"/>
<use transform="translate(124.2 163.2) scale(1 -1)" xlink:href="#sky130_ef_sc_hd__decap_12"/>
<use transform="translate(179.4 108.8)" xlink:href="#sky130_fd_sc_hd__fill_1"/>
<use transform="translate(188.6 108.8)" xlink:href="#sky130_ef_sc_hd__decap_12"/>
<use transform="translate(179.4 163.2) scale(1 -1)" xlink:href="#sky130_ef_sc_hd__decap_12"/>
<use transform="translate(184 108.8)" xlink:href="#sky130_fd_sc_hd__tapvpwrvgnd_1"/>
<use transform="translate(243.8 108.8)" xlink:href="#sky130_fd_sc_hd__decap_6"/>
<use transform="translate(271.4 108.8)" xlink:href="#sky130_fd_sc_hd__fill_1"/>
<use transform="translate(234.6 163.2) scale(1 -1)" xlink:href="#sky130_fd_sc_hd__decap_8"/>
<use transform="translate(271.4 163.2) scale(1 -1)" xlink:href="#sky130_fd_sc_hd__fill_1"/>
<use transform="translate(289.8 108.8) rotate(180) scale(1 -1)" xlink:href="#sky130_fd_sc_hd__decap_3"/>
<use transform="translate(289.8 163.2) rotate(180)" xlink:href="#sky130_fd_sc_hd__decap_3"/>
<use transform="translate(69 163.2)" xlink:href="#sky130_ef_sc_hd__decap_12"/>
<use transform="translate(55.2 163.2)" xlink:href="#sky130_fd_sc_hd__decap_3"/>
<use transform="translate(124.2 163.2)" xlink:href="#sky130_ef_sc_hd__decap_12"/>
<use transform="translate(179.4 163.2)" xlink:href="#sky130_fd_sc_hd__fill_1"/>
<use transform="translate(188.6 163.2)" xlink:href="#sky130_ef_sc_hd__decap_12"/>
<use transform="translate(184 163.2)" xlink:href="#sky130_fd_sc_hd__tapvpwrvgnd_1"/>
<use transform="translate(243.8 163.2)" xlink:href="#sky130_fd_sc_hd__decap_6"/>
<use transform="translate(271.4 163.2)" xlink:href="#sky130_fd_sc_hd__fill_1"/>
<use transform="translate(289.8 163.2) rotate(180) scale(1 -1)" xlink:href="#sky130_fd_sc_hd__decap_3"/>
<use transform="translate(69 217.6) scale(1 -1)" xlink:href="#sky130_ef_sc_hd__decap_12"/>
<use transform="translate(55.2 217.6) scale(1 -1)" xlink:href="#sky130_fd_sc_hd__decap_3"/>
<use transform="translate(124.2 217.6) scale(1 -1)" xlink:href="#sky130_ef_sc_hd__decap_12"/>
<use transform="translate(179.4 217.6) scale(1 -1)" xlink:href="#sky130_ef_sc_hd__decap_12"/>
<use transform="translate(234.6 217.6) scale(1 -1)" xlink:href="#sky130_fd_sc_hd__decap_8"/>
<use transform="translate(271.4 217.6) scale(1 -1)" xlink:href="#sky130_fd_sc_hd__fill_1"/>
<use transform="translate(289.8 217.6) rotate(180)" xlink:href="#sky130_fd_sc_hd__decap_3"/>
<use transform="translate(69 217.6)" xlink:href="#sky130_ef_sc_hd__decap_12"/>
<use transform="translate(55.2 217.6)" xlink:href="#sky130_fd_sc_hd__decap_3"/>
<use transform="translate(124.2 217.6)" xlink:href="#sky130_ef_sc_hd__decap_12"/>
<use transform="translate(179.4 217.6)" xlink:href="#sky130_fd_sc_hd__fill_1"/>
<use transform="translate(188.6 217.6)" xlink:href="#sky130_ef_sc_hd__decap_12"/>
<use transform="translate(184 217.6)" xlink:href="#sky130_fd_sc_hd__tapvpwrvgnd_1"/>
<use transform="translate(243.8 217.6)" xlink:href="#sky130_fd_sc_hd__decap_6"/>
<use transform="translate(271.4 217.6)" xlink:href="#sky130_fd_sc_hd__fill_1"/>
<use transform="translate(289.8 217.6) rotate(180) scale(1 -1)" xlink:href="#sky130_fd_sc_hd__decap_3"/>
<use transform="translate(69 272) scale(1 -1)" xlink:href="#sky130_ef_sc_hd__decap_12"/>
<use transform="translate(55.2 272) scale(1 -1)" xlink:href="#sky130_fd_sc_hd__decap_3"/>
<use transform="translate(124.2 272) scale(1 -1)" xlink:href="#sky130_ef_sc_hd__decap_12"/>
<use transform="translate(179.4 272) scale(1 -1)" xlink:href="#sky130_ef_sc_hd__decap_12"/>
<use transform="translate(234.6 272) scale(1 -1)" xlink:href="#sky130_fd_sc_hd__decap_6"/>
<use transform="translate(289.8 272) rotate(180)" xlink:href="#sky130_fd_sc_hd__decap_3"/>
<use transform="translate(262.2 272) scale(1 -1)" xlink:href="#sky130_fd_sc_hd__inv_2"/>
<use transform="translate(69 272)" xlink:href="#sky130_ef_sc_hd__decap_12"/>
<use transform="translate(69 326.4) scale(1 -1)" xlink:href="#sky130_ef_sc_hd__decap_12"/>
<use transform="translate(55.2 272)" xlink:href="#sky130_fd_sc_hd__decap_3"/>
<use transform="translate(55.2 326.4) scale(1 -1)" xlink:href="#sky130_fd_sc_hd__decap_3"/>
<use transform="translate(124.2 272)" xlink:href="#sky130_ef_sc_hd__decap_12"/>
<use transform="translate(124.2 326.4) scale(1 -1)" xlink:href="#sky130_ef_sc_hd__decap_12"/>
<use transform="translate(179.4 272)" xlink:href="#sky130_fd_sc_hd__fill_1"/>
<use transform="translate(188.6 272)" xlink:href="#sky130_ef_sc_hd__decap_12"/>
<use transform="translate(179.4 326.4) scale(1 -1)" xlink:href="#sky130_ef_sc_hd__decap_12"/>
<use transform="translate(184 272)" xlink:href="#sky130_fd_sc_hd__tapvpwrvgnd_1"/>
<use transform="translate(243.8 272)" xlink:href="#sky130_fd_sc_hd__fill_1"/>
<use transform="translate(234.6 326.4) scale(1 -1)" xlink:href="#sky130_fd_sc_hd__decap_6"/>
<use transform="translate(289.8 272) rotate(180) scale(1 -1)" xlink:href="#sky130_fd_sc_hd__decap_3"/>
<use transform="translate(289.8 326.4) rotate(180)" xlink:href="#sky130_fd_sc_hd__decap_3"/>
<use transform="translate(262.2 326.4) scale(1 -1)" xlink:href="#sky130_fd_sc_hd__clkbuf_1"/>
<use transform="translate(276 272) rotate(180) scale(1 -1)" xlink:href="#sky130_fd_sc_hd__clkbuf_4"/>
<use transform="translate(69 326.4)" xlink:href="#sky130_ef_sc_hd__decap_12"/>
<use transform="translate(55.2 326.4)" xlink:href="#sky130_fd_sc_hd__decap_3"/>
<use transform="translate(124.2 326.4)" xlink:href="#sky130_ef_sc_hd__decap_12"/>
<use transform="translate(179.4 326.4)" xlink:href="#sky130_fd_sc_hd__fill_1"/>
<use transform="translate(188.6 326.4)" xlink:href="#sky130_ef_sc_hd__decap_12"/>
<use transform="translate(184 326.4)" xlink:href="#sky130_fd_sc_hd__tapvpwrvgnd_1"/>
<use transform="translate(243.8 326.4)" xlink:href="#sky130_fd_sc_hd__decap_6"/>
<use transform="translate(271.4 326.4)" xlink:href="#sky130_fd_sc_hd__fill_1"/>
<use transform="translate(289.8 326.4) rotate(180) scale(1 -1)" xlink:href="#sky130_fd_sc_hd__decap_3"/>
<use transform="translate(69 380.8) scale(1 -1)" xlink:href="#sky130_ef_sc_hd__decap_12"/>
<use transform="translate(55.2 380.8) scale(1 -1)" xlink:href="#sky130_fd_sc_hd__decap_3"/>
<use transform="translate(124.2 380.8) scale(1 -1)" xlink:href="#sky130_ef_sc_hd__decap_12"/>
<use transform="translate(179.4 380.8) scale(1 -1)" xlink:href="#sky130_ef_sc_hd__decap_12"/>
<use transform="translate(234.6 380.8) scale(1 -1)" xlink:href="#sky130_fd_sc_hd__decap_8"/>
<use transform="translate(271.4 380.8) scale(1 -1)" xlink:href="#sky130_fd_sc_hd__fill_1"/>
<use transform="translate(289.8 380.8) rotate(180)" xlink:href="#sky130_fd_sc_hd__decap_3"/>
<use transform="translate(69 380.8)" xlink:href="#sky130_ef_sc_hd__decap_12"/>
<use transform="translate(55.2 380.8)" xlink:href="#sky130_fd_sc_hd__decap_3"/>
<use transform="translate(124.2 380.8)" xlink:href="#sky130_ef_sc_hd__decap_12"/>
<use transform="translate(179.4 380.8)" xlink:href="#sky130_fd_sc_hd__fill_1"/>
<use transform="translate(188.6 380.8)" xlink:href="#sky130_ef_sc_hd__decap_12"/>
<use transform="translate(184 380.8)" xlink:href="#sky130_fd_sc_hd__tapvpwrvgnd_1"/>
<use transform="translate(243.8 380.8)" xlink:href="#sky130_fd_sc_hd__decap_6"/>
<use transform="translate(271.4 380.8)" xlink:href="#sky130_fd_sc_hd__fill_1"/>
<use transform="translate(289.8 380.8) rotate(180) scale(1 -1)" xlink:href="#sky130_fd_sc_hd__decap_3"/>
<use transform="translate(69 435.2) scale(1 -1)" xlink:href="#sky130_ef_sc_hd__decap_12"/>
<use transform="translate(55.2 435.2) scale(1 -1)" xlink:href="#sky130_fd_sc_hd__decap_3"/>
<use transform="translate(124.2 435.2) scale(1 -1)" xlink:href="#sky130_ef_sc_hd__decap_12"/>
<use transform="translate(179.4 435.2) scale(1 -1)" xlink:href="#sky130_ef_sc_hd__decap_12"/>
<use transform="translate(234.6 435.2) scale(1 -1)" xlink:href="#sky130_fd_sc_hd__decap_8"/>
<use transform="translate(271.4 435.2) scale(1 -1)" xlink:href="#sky130_fd_sc_hd__fill_1"/>
<use transform="translate(289.8 435.2) rotate(180)" xlink:href="#sky130_fd_sc_hd__decap_3"/>
<use transform="translate(69 435.2)" xlink:href="#sky130_ef_sc_hd__decap_12"/>
<use transform="translate(55.2 435.2)" xlink:href="#sky130_fd_sc_hd__decap_3"/>
<use transform="translate(124.2 435.2)" xlink:href="#sky130_ef_sc_hd__decap_12"/>
<use transform="translate(179.4 435.2)" xlink:href="#sky130_fd_sc_hd__fill_1"/>
<use transform="translate(188.6 435.2)" xlink:href="#sky130_ef_sc_hd__decap_12"/>
<use transform="translate(184 435.2)" xlink:href="#sky130_fd_sc_hd__tapvpwrvgnd_1"/>
<use transform="translate(243.8 435.2)" xlink:href="#sky130_fd_sc_hd__decap_6"/>
<use transform="translate(271.4 435.2)" xlink:href="#sky130_fd_sc_hd__fill_1"/>
<use transform="translate(289.8 435.2) rotate(180) scale(1 -1)" xlink:href="#sky130_fd_sc_hd__decap_3"/>
<text id="0x59015fc0b870" class="l68t5" text-anchor="start" dominant-baseline="text-before-edge" transform="translate(172.5 435.2) scale(1 -1)">VGND</text>
<text id="0x59015fc0b900" class="l68t5" text-anchor="start" dominant-baseline="text-before-edge" transform="translate(172.5 462.4) scale(1 -1)">VPWR</text>
<text id="0x59015fc0b990" class="l69t5" text-anchor="start" dominant-baseline="text-before-edge" transform="translate(273.7 311.95) scale(1 -1)">in</text>
<text id="0x59015fc0ba20" class="l68t5" text-anchor="start" dominant-baseline="text-before-edge" transform="translate(264.5 263.5) scale(1 -1)">net1</text>
<text id="0x59015fc0bab0" class="l69t5" text-anchor="start" dominant-baseline="text-before-edge" transform="translate(269.1 273.7) scale(1 -1)">net2</text>
<text id="0x59015fc0bb40" class="l68t5" text-anchor="start" dominant-baseline="text-before-edge" transform="translate(269.1 277.1) scale(1 -1)">out</text>
<text id="0x59015fc0bbd0" class="l71t5" text-anchor="middle" dominant-baseline="central" transform="translate(138.2 285.6) rotate(90) scale(1.2) scale(1 -1)">VGND</text>
<text id="0x59015fc0bd30" class="l71t5" text-anchor="middle" dominant-baseline="central" transform="translate(105.2 285.6) rotate(90) scale(1.2) scale(1 -1)">VPWR</text>
<text id="0x59015fc0be90" class="l70t5" text-anchor="middle" dominant-baseline="central" transform="translate(325 309.4) scale(0.3) scale(1 -1)">in</text>
<text id="0x59015fc0c080" class="l70t5" text-anchor="middle" dominant-baseline="central" transform="translate(325 275.4) scale(0.3) scale(1 -1)">out</text>
</g>
</svg>